<mxfile host="app.diagrams.net" agent="Mozilla/5.0 (Windows NT 10.0; Win64; x64) AppleWebKit/537.36 (KHTML, like Gecko) Chrome/129.0.0.0 Safari/537.36" version="24.7.17">
  <diagram name="Page-1" id="uUaACJm3gSjX_VdpfQQA">
    <mxGraphModel dx="1763" dy="2654" grid="1" gridSize="10" guides="1" tooltips="1" connect="1" arrows="1" fold="1" page="1" pageScale="1" pageWidth="850" pageHeight="1100" math="0" shadow="0">
      <root>
        <mxCell id="0" />
        <mxCell id="1" parent="0" />
        <mxCell id="lxwzjU6P134eCqjQLcHW-1" value="Customer Profile" style="rounded=0;whiteSpace=wrap;html=1;fontSize=23;fillColor=#d80073;strokeColor=#A50040;fontColor=#ffffff;fontStyle=1" parent="1" vertex="1">
          <mxGeometry x="600" y="-1298" width="210" height="60" as="geometry" />
        </mxCell>
        <mxCell id="I6-eAjEo8sENSfLh10Aw-3" value="National_ID" style="ellipse;whiteSpace=wrap;html=1;fontStyle=5;fillColor=#d80073;fontColor=#ffffff;strokeColor=#A50040;" parent="1" vertex="1">
          <mxGeometry x="650" y="-1202" width="80" height="40" as="geometry" />
        </mxCell>
        <mxCell id="I6-eAjEo8sENSfLh10Aw-5" value="Name" style="ellipse;whiteSpace=wrap;html=1;fontStyle=1;fillColor=#d80073;fontColor=#ffffff;strokeColor=#A50040;" parent="1" vertex="1">
          <mxGeometry x="740" y="-1202" width="80" height="32" as="geometry" />
        </mxCell>
        <mxCell id="I6-eAjEo8sENSfLh10Aw-8" value="" style="endArrow=none;html=1;rounded=0;entryX=0.25;entryY=1;entryDx=0;entryDy=0;" parent="1" target="lxwzjU6P134eCqjQLcHW-1" edge="1">
          <mxGeometry width="50" height="50" relative="1" as="geometry">
            <mxPoint x="620" y="-1198" as="sourcePoint" />
            <mxPoint x="660" y="-1228" as="targetPoint" />
          </mxGeometry>
        </mxCell>
        <mxCell id="I6-eAjEo8sENSfLh10Aw-13" value="" style="endArrow=none;html=1;rounded=0;exitX=0.94;exitY=0.275;exitDx=0;exitDy=0;exitPerimeter=0;entryX=0;entryY=0.75;entryDx=0;entryDy=0;" parent="1" source="I6-eAjEo8sENSfLh10Aw-24" target="lxwzjU6P134eCqjQLcHW-1" edge="1">
          <mxGeometry width="50" height="50" relative="1" as="geometry">
            <mxPoint x="540" y="-1268" as="sourcePoint" />
            <mxPoint x="590" y="-1318" as="targetPoint" />
          </mxGeometry>
        </mxCell>
        <mxCell id="I6-eAjEo8sENSfLh10Aw-15" value="" style="endArrow=none;html=1;rounded=0;entryX=0.806;entryY=1.033;entryDx=0;entryDy=0;entryPerimeter=0;" parent="1" target="lxwzjU6P134eCqjQLcHW-1" edge="1">
          <mxGeometry width="50" height="50" relative="1" as="geometry">
            <mxPoint x="780" y="-1198" as="sourcePoint" />
            <mxPoint x="815" y="-1248" as="targetPoint" />
          </mxGeometry>
        </mxCell>
        <mxCell id="I6-eAjEo8sENSfLh10Aw-16" value="" style="endArrow=none;html=1;rounded=0;entryX=1;entryY=1;entryDx=0;entryDy=0;" parent="1" source="I6-eAjEo8sENSfLh10Aw-22" target="I6-eAjEo8sENSfLh10Aw-5" edge="1">
          <mxGeometry width="50" height="50" relative="1" as="geometry">
            <mxPoint x="830" y="-1148" as="sourcePoint" />
            <mxPoint x="880" y="-1198" as="targetPoint" />
          </mxGeometry>
        </mxCell>
        <mxCell id="I6-eAjEo8sENSfLh10Aw-18" value="" style="endArrow=none;html=1;rounded=0;entryX=0.5;entryY=1;entryDx=0;entryDy=0;" parent="1" target="I6-eAjEo8sENSfLh10Aw-5" edge="1">
          <mxGeometry width="50" height="50" relative="1" as="geometry">
            <mxPoint x="750" y="-1138" as="sourcePoint" />
            <mxPoint x="780" y="-1158" as="targetPoint" />
          </mxGeometry>
        </mxCell>
        <mxCell id="I6-eAjEo8sENSfLh10Aw-19" value="" style="endArrow=none;html=1;rounded=0;entryX=0.75;entryY=1;entryDx=0;entryDy=0;exitX=0.5;exitY=0;exitDx=0;exitDy=0;" parent="1" source="I6-eAjEo8sENSfLh10Aw-3" target="lxwzjU6P134eCqjQLcHW-1" edge="1">
          <mxGeometry width="50" height="50" relative="1" as="geometry">
            <mxPoint x="610" y="-1168" as="sourcePoint" />
            <mxPoint x="660" y="-1218" as="targetPoint" />
          </mxGeometry>
        </mxCell>
        <mxCell id="I6-eAjEo8sENSfLh10Aw-21" value="First_name" style="ellipse;whiteSpace=wrap;html=1;fontStyle=1;fillColor=#d80073;fontColor=#ffffff;strokeColor=#A50040;" parent="1" vertex="1">
          <mxGeometry x="720" y="-1138" width="80" height="32" as="geometry" />
        </mxCell>
        <mxCell id="I6-eAjEo8sENSfLh10Aw-22" value="Second_Name" style="ellipse;whiteSpace=wrap;html=1;fontStyle=1;fillColor=#d80073;fontColor=#ffffff;strokeColor=#A50040;" parent="1" vertex="1">
          <mxGeometry x="800" y="-1148" width="90" height="32" as="geometry" />
        </mxCell>
        <mxCell id="I6-eAjEo8sENSfLh10Aw-23" value="email" style="ellipse;whiteSpace=wrap;html=1;fontStyle=1;fillColor=#d80073;fontColor=#ffffff;strokeColor=#A50040;" parent="1" vertex="1">
          <mxGeometry x="560" y="-1198" width="80" height="32" as="geometry" />
        </mxCell>
        <mxCell id="I6-eAjEo8sENSfLh10Aw-24" value="Address" style="ellipse;whiteSpace=wrap;html=1;fontStyle=1;fillColor=#d80073;fontColor=#ffffff;strokeColor=#A50040;" parent="1" vertex="1">
          <mxGeometry x="490" y="-1248" width="80" height="32" as="geometry" />
        </mxCell>
        <mxCell id="I6-eAjEo8sENSfLh10Aw-25" value="Date_of_birth" style="ellipse;whiteSpace=wrap;html=1;fontStyle=1;fillColor=#d80073;fontColor=#ffffff;strokeColor=#A50040;" parent="1" vertex="1">
          <mxGeometry x="460" y="-1202" width="90" height="32" as="geometry" />
        </mxCell>
        <mxCell id="I6-eAjEo8sENSfLh10Aw-26" value="" style="endArrow=none;html=1;rounded=0;exitX=0;exitY=0;exitDx=0;exitDy=0;entryX=0.563;entryY=0.98;entryDx=0;entryDy=0;entryPerimeter=0;" parent="1" source="I6-eAjEo8sENSfLh10Aw-43" target="I6-eAjEo8sENSfLh10Aw-28" edge="1">
          <mxGeometry width="50" height="50" relative="1" as="geometry">
            <mxPoint x="1160" y="-610" as="sourcePoint" />
            <mxPoint x="1210" y="-660" as="targetPoint" />
          </mxGeometry>
        </mxCell>
        <mxCell id="I6-eAjEo8sENSfLh10Aw-27" value="" style="endArrow=none;html=1;rounded=0;exitX=1;exitY=0;exitDx=0;exitDy=0;" parent="1" source="I6-eAjEo8sENSfLh10Aw-25" edge="1">
          <mxGeometry width="50" height="50" relative="1" as="geometry">
            <mxPoint x="550" y="-1188" as="sourcePoint" />
            <mxPoint x="600" y="-1238" as="targetPoint" />
          </mxGeometry>
        </mxCell>
        <mxCell id="I6-eAjEo8sENSfLh10Aw-28" value="Customer Account" style="rounded=0;whiteSpace=wrap;html=1;fontSize=27;fillColor=#6a00ff;strokeColor=#3700CC;fontColor=#ffffff;fontStyle=1" parent="1" vertex="1">
          <mxGeometry x="810" y="-730" width="290" height="140" as="geometry" />
        </mxCell>
        <mxCell id="I6-eAjEo8sENSfLh10Aw-29" value="Line_balance" style="ellipse;whiteSpace=wrap;html=1;fontStyle=1;fillColor=#6a00ff;fontColor=#ffffff;strokeColor=#3700CC;" parent="1" vertex="1">
          <mxGeometry x="810" y="-531.5" width="90" height="40" as="geometry" />
        </mxCell>
        <mxCell id="I6-eAjEo8sENSfLh10Aw-30" value="Start_date" style="ellipse;whiteSpace=wrap;html=1;fontStyle=1;fillColor=#6a00ff;fontColor=#ffffff;strokeColor=#3700CC;" parent="1" vertex="1">
          <mxGeometry x="890" y="-550" width="80" height="32" as="geometry" />
        </mxCell>
        <mxCell id="I6-eAjEo8sENSfLh10Aw-31" value="" style="endArrow=none;html=1;rounded=0;entryX=0.25;entryY=1;entryDx=0;entryDy=0;exitX=0.5;exitY=0;exitDx=0;exitDy=0;" parent="1" source="I6-eAjEo8sENSfLh10Aw-39" target="I6-eAjEo8sENSfLh10Aw-28" edge="1">
          <mxGeometry width="50" height="50" relative="1" as="geometry">
            <mxPoint x="910" y="-550" as="sourcePoint" />
            <mxPoint x="950" y="-580" as="targetPoint" />
          </mxGeometry>
        </mxCell>
        <mxCell id="I6-eAjEo8sENSfLh10Aw-32" value="" style="endArrow=none;html=1;rounded=0;exitX=0.94;exitY=0.275;exitDx=0;exitDy=0;exitPerimeter=0;entryX=0;entryY=0.75;entryDx=0;entryDy=0;" parent="1" source="I6-eAjEo8sENSfLh10Aw-40" target="I6-eAjEo8sENSfLh10Aw-28" edge="1">
          <mxGeometry width="50" height="50" relative="1" as="geometry">
            <mxPoint x="830" y="-620" as="sourcePoint" />
            <mxPoint x="880" y="-670" as="targetPoint" />
          </mxGeometry>
        </mxCell>
        <mxCell id="I6-eAjEo8sENSfLh10Aw-33" value="" style="endArrow=none;html=1;rounded=0;entryX=0.453;entryY=0.98;entryDx=0;entryDy=0;entryPerimeter=0;exitX=0.35;exitY=0.125;exitDx=0;exitDy=0;exitPerimeter=0;" parent="1" source="I6-eAjEo8sENSfLh10Aw-30" target="I6-eAjEo8sENSfLh10Aw-28" edge="1">
          <mxGeometry width="50" height="50" relative="1" as="geometry">
            <mxPoint x="1070" y="-550" as="sourcePoint" />
            <mxPoint x="1105" y="-600" as="targetPoint" />
          </mxGeometry>
        </mxCell>
        <mxCell id="I6-eAjEo8sENSfLh10Aw-36" value="" style="endArrow=none;html=1;rounded=0;entryX=0.394;entryY=1;entryDx=0;entryDy=0;exitX=0.5;exitY=0;exitDx=0;exitDy=0;entryPerimeter=0;" parent="1" source="I6-eAjEo8sENSfLh10Aw-29" target="I6-eAjEo8sENSfLh10Aw-28" edge="1">
          <mxGeometry width="50" height="50" relative="1" as="geometry">
            <mxPoint x="900" y="-520" as="sourcePoint" />
            <mxPoint x="950" y="-570" as="targetPoint" />
          </mxGeometry>
        </mxCell>
        <mxCell id="I6-eAjEo8sENSfLh10Aw-39" value="Account_Type" style="ellipse;whiteSpace=wrap;html=1;fontStyle=1;fillColor=#6a00ff;fontColor=#ffffff;strokeColor=#3700CC;" parent="1" vertex="1">
          <mxGeometry x="755" y="-563.5" width="95" height="32" as="geometry" />
        </mxCell>
        <mxCell id="I6-eAjEo8sENSfLh10Aw-40" value="Mobile_Number" style="ellipse;whiteSpace=wrap;html=1;fontStyle=5;fillColor=#6a00ff;fontColor=#ffffff;strokeColor=#3700CC;" parent="1" vertex="1">
          <mxGeometry x="680" y="-595" width="110" height="32" as="geometry" />
        </mxCell>
        <mxCell id="I6-eAjEo8sENSfLh10Aw-43" value="Status" style="ellipse;whiteSpace=wrap;html=1;fontStyle=1;fillColor=#6a00ff;fontColor=#ffffff;strokeColor=#3700CC;" parent="1" vertex="1">
          <mxGeometry x="960" y="-563.5" width="80" height="32" as="geometry" />
        </mxCell>
        <mxCell id="I6-eAjEo8sENSfLh10Aw-45" value="Total_points" style="ellipse;whiteSpace=wrap;html=1;fontStyle=1;fillColor=#6a00ff;fontColor=#ffffff;strokeColor=#3700CC;" parent="1" vertex="1">
          <mxGeometry x="1040" y="-579" width="80" height="32" as="geometry" />
        </mxCell>
        <mxCell id="I6-eAjEo8sENSfLh10Aw-47" value="" style="endArrow=none;html=1;rounded=0;exitX=0.75;exitY=1;exitDx=0;exitDy=0;entryX=0;entryY=0.5;entryDx=0;entryDy=0;" parent="1" source="I6-eAjEo8sENSfLh10Aw-28" target="I6-eAjEo8sENSfLh10Aw-45" edge="1">
          <mxGeometry width="50" height="50" relative="1" as="geometry">
            <mxPoint x="1150" y="-660" as="sourcePoint" />
            <mxPoint x="1200" y="-710" as="targetPoint" />
          </mxGeometry>
        </mxCell>
        <mxCell id="I6-eAjEo8sENSfLh10Aw-64" value="" style="endArrow=none;html=1;rounded=0;exitX=0;exitY=0;exitDx=0;exitDy=0;entryX=0.829;entryY=1.013;entryDx=0;entryDy=0;entryPerimeter=0;fillColor=#60a917;strokeColor=#2D7600;" parent="1" source="I6-eAjEo8sENSfLh10Aw-74" target="I6-eAjEo8sENSfLh10Aw-65" edge="1">
          <mxGeometry width="50" height="50" relative="1" as="geometry">
            <mxPoint x="1895" y="-610" as="sourcePoint" />
            <mxPoint x="1945" y="-660" as="targetPoint" />
          </mxGeometry>
        </mxCell>
        <mxCell id="I6-eAjEo8sENSfLh10Aw-65" value="Service Plan" style="rounded=0;whiteSpace=wrap;html=1;fontSize=23;fillColor=#60a917;strokeColor=#2D7600;fontColor=#ffffff;fontStyle=1" parent="1" vertex="1">
          <mxGeometry x="1625" y="-650" width="210" height="60" as="geometry" />
        </mxCell>
        <mxCell id="I6-eAjEo8sENSfLh10Aw-66" value="Description" style="ellipse;whiteSpace=wrap;html=1;fontStyle=1;fillColor=#60a917;fontColor=#ffffff;strokeColor=#2D7600;" parent="1" vertex="1">
          <mxGeometry x="1820" y="-541" width="90" height="40" as="geometry" />
        </mxCell>
        <mxCell id="I6-eAjEo8sENSfLh10Aw-67" value="Price" style="ellipse;whiteSpace=wrap;html=1;fontStyle=1;fillColor=#60a917;fontColor=#ffffff;strokeColor=#2D7600;" parent="1" vertex="1">
          <mxGeometry x="1835" y="-579" width="80" height="32" as="geometry" />
        </mxCell>
        <mxCell id="I6-eAjEo8sENSfLh10Aw-68" value="" style="endArrow=none;html=1;rounded=0;entryX=0.5;entryY=1;entryDx=0;entryDy=0;exitX=0.5;exitY=0;exitDx=0;exitDy=0;fillColor=#60a917;strokeColor=#2D7600;" parent="1" source="I6-eAjEo8sENSfLh10Aw-72" target="I6-eAjEo8sENSfLh10Aw-65" edge="1">
          <mxGeometry width="50" height="50" relative="1" as="geometry">
            <mxPoint x="1645" y="-550" as="sourcePoint" />
            <mxPoint x="1685" y="-580" as="targetPoint" />
          </mxGeometry>
        </mxCell>
        <mxCell id="I6-eAjEo8sENSfLh10Aw-69" value="" style="endArrow=none;html=1;rounded=0;fillColor=#60a917;strokeColor=#2D7600;exitX=0.392;exitY=0.131;exitDx=0;exitDy=0;exitPerimeter=0;entryX=0.321;entryY=1.078;entryDx=0;entryDy=0;entryPerimeter=0;" parent="1" source="I6-eAjEo8sENSfLh10Aw-73" target="I6-eAjEo8sENSfLh10Aw-65" edge="1">
          <mxGeometry width="50" height="50" relative="1" as="geometry">
            <mxPoint x="1680" y="-510" as="sourcePoint" />
            <mxPoint x="1700" y="-580" as="targetPoint" />
          </mxGeometry>
        </mxCell>
        <mxCell id="I6-eAjEo8sENSfLh10Aw-70" value="" style="endArrow=none;html=1;rounded=0;entryX=0.75;entryY=1;entryDx=0;entryDy=0;exitX=0.35;exitY=0.125;exitDx=0;exitDy=0;exitPerimeter=0;fillColor=#60a917;strokeColor=#2D7600;" parent="1" source="I6-eAjEo8sENSfLh10Aw-67" target="I6-eAjEo8sENSfLh10Aw-65" edge="1">
          <mxGeometry width="50" height="50" relative="1" as="geometry">
            <mxPoint x="1805" y="-550" as="sourcePoint" />
            <mxPoint x="1840" y="-600" as="targetPoint" />
          </mxGeometry>
        </mxCell>
        <mxCell id="I6-eAjEo8sENSfLh10Aw-71" value="" style="endArrow=none;html=1;rounded=0;entryX=0.677;entryY=0.967;entryDx=0;entryDy=0;exitX=0.5;exitY=0;exitDx=0;exitDy=0;entryPerimeter=0;fillColor=#60a917;strokeColor=#2D7600;" parent="1" source="I6-eAjEo8sENSfLh10Aw-66" target="I6-eAjEo8sENSfLh10Aw-65" edge="1">
          <mxGeometry width="50" height="50" relative="1" as="geometry">
            <mxPoint x="1635" y="-520" as="sourcePoint" />
            <mxPoint x="1685" y="-570" as="targetPoint" />
          </mxGeometry>
        </mxCell>
        <mxCell id="I6-eAjEo8sENSfLh10Aw-72" value="Name" style="ellipse;whiteSpace=wrap;html=1;fontStyle=1;fillColor=#60a917;fontColor=#ffffff;strokeColor=#2D7600;" parent="1" vertex="1">
          <mxGeometry x="1731.25" y="-558" width="95" height="32" as="geometry" />
        </mxCell>
        <mxCell id="I6-eAjEo8sENSfLh10Aw-73" value="Plan_ID" style="ellipse;whiteSpace=wrap;html=1;fontStyle=5;fillColor=#60a917;fontColor=#ffffff;strokeColor=#2D7600;" parent="1" vertex="1">
          <mxGeometry x="1710" y="-501" width="110" height="32" as="geometry" />
        </mxCell>
        <mxCell id="I6-eAjEo8sENSfLh10Aw-74" value="Internet_GB" style="ellipse;whiteSpace=wrap;html=1;fontStyle=1;fillColor=#60a917;fontColor=#ffffff;strokeColor=#2D7600;" parent="1" vertex="1">
          <mxGeometry x="1900" y="-601.5" width="90" height="32" as="geometry" />
        </mxCell>
        <mxCell id="I6-eAjEo8sENSfLh10Aw-75" value="SMS" style="ellipse;whiteSpace=wrap;html=1;fontStyle=1;fillColor=#60a917;fontColor=#ffffff;strokeColor=#2D7600;" parent="1" vertex="1">
          <mxGeometry x="1880" y="-644.5" width="100" height="32" as="geometry" />
        </mxCell>
        <mxCell id="I6-eAjEo8sENSfLh10Aw-76" value="" style="endArrow=none;html=1;rounded=0;exitX=1;exitY=1;exitDx=0;exitDy=0;entryX=0;entryY=0.5;entryDx=0;entryDy=0;fillColor=#60a917;strokeColor=#2D7600;" parent="1" source="I6-eAjEo8sENSfLh10Aw-65" target="I6-eAjEo8sENSfLh10Aw-75" edge="1">
          <mxGeometry width="50" height="50" relative="1" as="geometry">
            <mxPoint x="1885" y="-660" as="sourcePoint" />
            <mxPoint x="1935" y="-710" as="targetPoint" />
          </mxGeometry>
        </mxCell>
        <mxCell id="I6-eAjEo8sENSfLh10Aw-77" value="Call_minutes" style="ellipse;whiteSpace=wrap;html=1;fontStyle=1;fillColor=#60a917;fontColor=#ffffff;strokeColor=#2D7600;" parent="1" vertex="1">
          <mxGeometry x="1850" y="-680" width="100" height="32" as="geometry" />
        </mxCell>
        <mxCell id="I6-eAjEo8sENSfLh10Aw-78" value="" style="endArrow=none;html=1;rounded=0;exitX=1;exitY=0.5;exitDx=0;exitDy=0;entryX=0;entryY=0.5;entryDx=0;entryDy=0;fillColor=#60a917;strokeColor=#2D7600;" parent="1" source="I6-eAjEo8sENSfLh10Aw-65" target="I6-eAjEo8sENSfLh10Aw-77" edge="1">
          <mxGeometry width="50" height="50" relative="1" as="geometry">
            <mxPoint x="1845" y="-655" as="sourcePoint" />
            <mxPoint x="1895" y="-705" as="targetPoint" />
          </mxGeometry>
        </mxCell>
        <mxCell id="I6-eAjEo8sENSfLh10Aw-79" value="" style="endArrow=none;html=1;rounded=0;exitX=0;exitY=0;exitDx=0;exitDy=0;entryX=0.829;entryY=1.013;entryDx=0;entryDy=0;entryPerimeter=0;fillColor=#e51400;strokeColor=#B20000;" parent="1" source="I6-eAjEo8sENSfLh10Aw-89" target="I6-eAjEo8sENSfLh10Aw-80" edge="1">
          <mxGeometry width="50" height="50" relative="1" as="geometry">
            <mxPoint x="1542.5" y="-300" as="sourcePoint" />
            <mxPoint x="1592.5" y="-350" as="targetPoint" />
          </mxGeometry>
        </mxCell>
        <mxCell id="I6-eAjEo8sENSfLh10Aw-80" value="Plan Usage" style="rounded=0;whiteSpace=wrap;html=1;fontSize=23;fillColor=#e51400;strokeColor=#B20000;fontColor=#ffffff;fontStyle=1" parent="1" vertex="1">
          <mxGeometry x="1272.5" y="-340" width="210" height="60" as="geometry" />
        </mxCell>
        <mxCell id="I6-eAjEo8sENSfLh10Aw-81" value="End_date" style="ellipse;whiteSpace=wrap;html=1;fontStyle=1;fillColor=#e51400;fontColor=#ffffff;strokeColor=#B20000;" parent="1" vertex="1">
          <mxGeometry x="1292.5" y="-238" width="90" height="40" as="geometry" />
        </mxCell>
        <mxCell id="I6-eAjEo8sENSfLh10Aw-82" value="SMS_sent" style="ellipse;whiteSpace=wrap;html=1;fontStyle=1;fillColor=#e51400;fontColor=#ffffff;strokeColor=#B20000;" parent="1" vertex="1">
          <mxGeometry x="1372.5" y="-258" width="80" height="32" as="geometry" />
        </mxCell>
        <mxCell id="I6-eAjEo8sENSfLh10Aw-83" value="" style="endArrow=none;html=1;rounded=0;entryX=0.25;entryY=1;entryDx=0;entryDy=0;exitX=0.5;exitY=0;exitDx=0;exitDy=0;fillColor=#e51400;strokeColor=#B20000;" parent="1" source="I6-eAjEo8sENSfLh10Aw-87" target="I6-eAjEo8sENSfLh10Aw-80" edge="1">
          <mxGeometry width="50" height="50" relative="1" as="geometry">
            <mxPoint x="1292.5" y="-240" as="sourcePoint" />
            <mxPoint x="1332.5" y="-270" as="targetPoint" />
          </mxGeometry>
        </mxCell>
        <mxCell id="I6-eAjEo8sENSfLh10Aw-84" value="" style="endArrow=none;html=1;rounded=0;exitX=0.94;exitY=0.275;exitDx=0;exitDy=0;exitPerimeter=0;entryX=0;entryY=0.75;entryDx=0;entryDy=0;fillColor=#e51400;strokeColor=#B20000;" parent="1" source="I6-eAjEo8sENSfLh10Aw-88" target="I6-eAjEo8sENSfLh10Aw-80" edge="1">
          <mxGeometry width="50" height="50" relative="1" as="geometry">
            <mxPoint x="1212.5" y="-310" as="sourcePoint" />
            <mxPoint x="1262.5" y="-360" as="targetPoint" />
          </mxGeometry>
        </mxCell>
        <mxCell id="I6-eAjEo8sENSfLh10Aw-85" value="" style="endArrow=none;html=1;rounded=0;entryX=0.589;entryY=0.96;entryDx=0;entryDy=0;entryPerimeter=0;exitX=0.35;exitY=0.125;exitDx=0;exitDy=0;exitPerimeter=0;fillColor=#e51400;strokeColor=#B20000;" parent="1" source="I6-eAjEo8sENSfLh10Aw-82" target="I6-eAjEo8sENSfLh10Aw-80" edge="1">
          <mxGeometry width="50" height="50" relative="1" as="geometry">
            <mxPoint x="1452.5" y="-240" as="sourcePoint" />
            <mxPoint x="1487.5" y="-290" as="targetPoint" />
          </mxGeometry>
        </mxCell>
        <mxCell id="I6-eAjEo8sENSfLh10Aw-86" value="" style="endArrow=none;html=1;rounded=0;entryX=0.394;entryY=1;entryDx=0;entryDy=0;exitX=0.5;exitY=0;exitDx=0;exitDy=0;entryPerimeter=0;fillColor=#e51400;strokeColor=#B20000;" parent="1" source="I6-eAjEo8sENSfLh10Aw-81" target="I6-eAjEo8sENSfLh10Aw-80" edge="1">
          <mxGeometry width="50" height="50" relative="1" as="geometry">
            <mxPoint x="1282.5" y="-210" as="sourcePoint" />
            <mxPoint x="1332.5" y="-260" as="targetPoint" />
          </mxGeometry>
        </mxCell>
        <mxCell id="I6-eAjEo8sENSfLh10Aw-87" value="Start_date" style="ellipse;whiteSpace=wrap;html=1;fontStyle=1;fillColor=#e51400;fontColor=#ffffff;strokeColor=#B20000;" parent="1" vertex="1">
          <mxGeometry x="1212.5" y="-262" width="95" height="32" as="geometry" />
        </mxCell>
        <mxCell id="I6-eAjEo8sENSfLh10Aw-88" value="Usage_ID" style="ellipse;whiteSpace=wrap;html=1;fontStyle=5;fillColor=#e51400;fontColor=#ffffff;strokeColor=#B20000;" parent="1" vertex="1">
          <mxGeometry x="1132.5" y="-290" width="110" height="32" as="geometry" />
        </mxCell>
        <mxCell id="I6-eAjEo8sENSfLh10Aw-89" value="Minutes_used" style="ellipse;whiteSpace=wrap;html=1;fontStyle=1;fillColor=#e51400;fontColor=#ffffff;strokeColor=#B20000;" parent="1" vertex="1">
          <mxGeometry x="1462.5" y="-243" width="100" height="32" as="geometry" />
        </mxCell>
        <mxCell id="I6-eAjEo8sENSfLh10Aw-90" value="Data_consumption" style="ellipse;whiteSpace=wrap;html=1;fontStyle=1;fillColor=#e51400;fontColor=#ffffff;strokeColor=#B20000;" parent="1" vertex="1">
          <mxGeometry x="1507.5" y="-290" width="120" height="32" as="geometry" />
        </mxCell>
        <mxCell id="I6-eAjEo8sENSfLh10Aw-91" value="" style="endArrow=none;html=1;rounded=0;exitX=1;exitY=1;exitDx=0;exitDy=0;entryX=0;entryY=0.5;entryDx=0;entryDy=0;fillColor=#e51400;strokeColor=#B20000;" parent="1" source="I6-eAjEo8sENSfLh10Aw-80" target="I6-eAjEo8sENSfLh10Aw-90" edge="1">
          <mxGeometry width="50" height="50" relative="1" as="geometry">
            <mxPoint x="1532.5" y="-350" as="sourcePoint" />
            <mxPoint x="1492.4999999999977" y="-263.9999999999998" as="targetPoint" />
          </mxGeometry>
        </mxCell>
        <mxCell id="I6-eAjEo8sENSfLh10Aw-94" value="" style="endArrow=none;html=1;rounded=0;exitX=0;exitY=0;exitDx=0;exitDy=0;entryX=0.829;entryY=1.013;entryDx=0;entryDy=0;entryPerimeter=0;fillColor=#6d8764;strokeColor=#3A5431;" parent="1" source="I6-eAjEo8sENSfLh10Aw-104" target="I6-eAjEo8sENSfLh10Aw-95" edge="1">
          <mxGeometry width="50" height="50" relative="1" as="geometry">
            <mxPoint x="700" y="-444" as="sourcePoint" />
            <mxPoint x="750" y="-494" as="targetPoint" />
          </mxGeometry>
        </mxCell>
        <mxCell id="I6-eAjEo8sENSfLh10Aw-95" value="Payment" style="rounded=0;whiteSpace=wrap;html=1;fontSize=23;fillColor=#6d8764;strokeColor=#3A5431;fontColor=#ffffff;fontStyle=1" parent="1" vertex="1">
          <mxGeometry x="430" y="-484" width="210" height="60" as="geometry" />
        </mxCell>
        <mxCell id="I6-eAjEo8sENSfLh10Aw-97" value="Status" style="ellipse;whiteSpace=wrap;html=1;fontStyle=1;fillColor=#6d8764;strokeColor=#3A5431;fontColor=#ffffff;" parent="1" vertex="1">
          <mxGeometry x="495" y="-401" width="80" height="32" as="geometry" />
        </mxCell>
        <mxCell id="I6-eAjEo8sENSfLh10Aw-98" value="" style="endArrow=none;html=1;rounded=0;entryX=0.25;entryY=1;entryDx=0;entryDy=0;exitX=0.5;exitY=0;exitDx=0;exitDy=0;fillColor=#6d8764;strokeColor=#3A5431;" parent="1" source="I6-eAjEo8sENSfLh10Aw-102" target="I6-eAjEo8sENSfLh10Aw-95" edge="1">
          <mxGeometry width="50" height="50" relative="1" as="geometry">
            <mxPoint x="450" y="-384" as="sourcePoint" />
            <mxPoint x="490" y="-414" as="targetPoint" />
          </mxGeometry>
        </mxCell>
        <mxCell id="I6-eAjEo8sENSfLh10Aw-99" value="" style="endArrow=none;html=1;rounded=0;exitX=0.94;exitY=0.275;exitDx=0;exitDy=0;exitPerimeter=0;entryX=0;entryY=0.75;entryDx=0;entryDy=0;fillColor=#6d8764;strokeColor=#3A5431;" parent="1" source="I6-eAjEo8sENSfLh10Aw-103" target="I6-eAjEo8sENSfLh10Aw-95" edge="1">
          <mxGeometry width="50" height="50" relative="1" as="geometry">
            <mxPoint x="370" y="-454" as="sourcePoint" />
            <mxPoint x="420" y="-504" as="targetPoint" />
          </mxGeometry>
        </mxCell>
        <mxCell id="I6-eAjEo8sENSfLh10Aw-100" value="" style="endArrow=none;html=1;rounded=0;entryX=0.589;entryY=0.96;entryDx=0;entryDy=0;entryPerimeter=0;exitX=0.35;exitY=0.125;exitDx=0;exitDy=0;exitPerimeter=0;fillColor=#6d8764;strokeColor=#3A5431;" parent="1" source="I6-eAjEo8sENSfLh10Aw-97" target="I6-eAjEo8sENSfLh10Aw-95" edge="1">
          <mxGeometry width="50" height="50" relative="1" as="geometry">
            <mxPoint x="610" y="-384" as="sourcePoint" />
            <mxPoint x="645" y="-434" as="targetPoint" />
          </mxGeometry>
        </mxCell>
        <mxCell id="I6-eAjEo8sENSfLh10Aw-102" value="Method" style="ellipse;whiteSpace=wrap;html=1;fontStyle=1;fillColor=#6d8764;strokeColor=#3A5431;fontColor=#ffffff;" parent="1" vertex="1">
          <mxGeometry x="390" y="-401" width="90" height="32" as="geometry" />
        </mxCell>
        <mxCell id="I6-eAjEo8sENSfLh10Aw-103" value="Payment_ID" style="ellipse;whiteSpace=wrap;html=1;fontStyle=5;fillColor=#6d8764;strokeColor=#3A5431;fontColor=#ffffff;" parent="1" vertex="1">
          <mxGeometry x="300" y="-428" width="110" height="32" as="geometry" />
        </mxCell>
        <mxCell id="I6-eAjEo8sENSfLh10Aw-104" value="Date_of_payment" style="ellipse;whiteSpace=wrap;html=1;fontStyle=1;fillColor=#6d8764;strokeColor=#3A5431;fontColor=#ffffff;" parent="1" vertex="1">
          <mxGeometry x="590" y="-386" width="110" height="32" as="geometry" />
        </mxCell>
        <mxCell id="I6-eAjEo8sENSfLh10Aw-105" value="Transaction_amount" style="ellipse;whiteSpace=wrap;html=1;fontStyle=1;fillColor=#6d8764;strokeColor=#3A5431;fontColor=#ffffff;" parent="1" vertex="1">
          <mxGeometry x="650" y="-424" width="130" height="32" as="geometry" />
        </mxCell>
        <mxCell id="I6-eAjEo8sENSfLh10Aw-106" value="" style="endArrow=none;html=1;rounded=0;exitX=1;exitY=1;exitDx=0;exitDy=0;entryX=0;entryY=0.5;entryDx=0;entryDy=0;fillColor=#6d8764;strokeColor=#3A5431;" parent="1" source="I6-eAjEo8sENSfLh10Aw-95" target="I6-eAjEo8sENSfLh10Aw-105" edge="1">
          <mxGeometry width="50" height="50" relative="1" as="geometry">
            <mxPoint x="690" y="-494" as="sourcePoint" />
            <mxPoint x="740" y="-544" as="targetPoint" />
          </mxGeometry>
        </mxCell>
        <mxCell id="I6-eAjEo8sENSfLh10Aw-107" value="" style="endArrow=none;html=1;rounded=0;exitX=0.5;exitY=0;exitDx=0;exitDy=0;entryX=0.5;entryY=1;entryDx=0;entryDy=0;fillColor=#76608a;strokeColor=#432D57;" parent="1" source="I6-eAjEo8sENSfLh10Aw-115" target="I6-eAjEo8sENSfLh10Aw-108" edge="1">
          <mxGeometry width="50" height="50" relative="1" as="geometry">
            <mxPoint x="490" y="-733" as="sourcePoint" />
            <mxPoint x="540" y="-783" as="targetPoint" />
          </mxGeometry>
        </mxCell>
        <mxCell id="I6-eAjEo8sENSfLh10Aw-108" value="Wallet" style="rounded=0;whiteSpace=wrap;html=1;fontSize=23;fillColor=#76608a;strokeColor=#432D57;fontColor=#ffffff;fontStyle=1" parent="1" vertex="1">
          <mxGeometry x="220" y="-773" width="210" height="60" as="geometry" />
        </mxCell>
        <mxCell id="I6-eAjEo8sENSfLh10Aw-110" value="" style="endArrow=none;html=1;rounded=0;entryX=0.25;entryY=1;entryDx=0;entryDy=0;exitX=0.5;exitY=0;exitDx=0;exitDy=0;fillColor=#76608a;strokeColor=#432D57;" parent="1" source="I6-eAjEo8sENSfLh10Aw-113" target="I6-eAjEo8sENSfLh10Aw-108" edge="1">
          <mxGeometry width="50" height="50" relative="1" as="geometry">
            <mxPoint x="240" y="-673" as="sourcePoint" />
            <mxPoint x="280" y="-703" as="targetPoint" />
          </mxGeometry>
        </mxCell>
        <mxCell id="I6-eAjEo8sENSfLh10Aw-111" value="" style="endArrow=none;html=1;rounded=0;exitX=0.94;exitY=0.275;exitDx=0;exitDy=0;exitPerimeter=0;entryX=0;entryY=0.75;entryDx=0;entryDy=0;fillColor=#76608a;strokeColor=#432D57;" parent="1" source="I6-eAjEo8sENSfLh10Aw-114" target="I6-eAjEo8sENSfLh10Aw-108" edge="1">
          <mxGeometry width="50" height="50" relative="1" as="geometry">
            <mxPoint x="160" y="-743" as="sourcePoint" />
            <mxPoint x="210" y="-793" as="targetPoint" />
          </mxGeometry>
        </mxCell>
        <mxCell id="I6-eAjEo8sENSfLh10Aw-113" value="Current_balance" style="ellipse;whiteSpace=wrap;html=1;fontStyle=1;fillColor=#76608a;strokeColor=#432D57;fontColor=#ffffff;" parent="1" vertex="1">
          <mxGeometry x="170" y="-690" width="100" height="32" as="geometry" />
        </mxCell>
        <mxCell id="I6-eAjEo8sENSfLh10Aw-114" value="Wallet_ID" style="ellipse;whiteSpace=wrap;html=1;fontStyle=5;fillColor=#76608a;strokeColor=#432D57;fontColor=#ffffff;" parent="1" vertex="1">
          <mxGeometry x="90" y="-717" width="110" height="32" as="geometry" />
        </mxCell>
        <mxCell id="I6-eAjEo8sENSfLh10Aw-115" value="Currency" style="ellipse;whiteSpace=wrap;html=1;fontStyle=1;fillColor=#76608a;strokeColor=#432D57;fontColor=#ffffff;" parent="1" vertex="1">
          <mxGeometry x="275" y="-677" width="90" height="32" as="geometry" />
        </mxCell>
        <mxCell id="I6-eAjEo8sENSfLh10Aw-116" value="Last_modified_date" style="ellipse;whiteSpace=wrap;html=1;fontStyle=1;fillColor=#76608a;strokeColor=#432D57;fontColor=#ffffff;" parent="1" vertex="1">
          <mxGeometry x="358" y="-700" width="130" height="32" as="geometry" />
        </mxCell>
        <mxCell id="I6-eAjEo8sENSfLh10Aw-117" value="" style="endArrow=none;html=1;rounded=0;exitX=0.75;exitY=1;exitDx=0;exitDy=0;entryX=0;entryY=0;entryDx=0;entryDy=0;fillColor=#76608a;strokeColor=#432D57;" parent="1" source="I6-eAjEo8sENSfLh10Aw-108" target="I6-eAjEo8sENSfLh10Aw-116" edge="1">
          <mxGeometry width="50" height="50" relative="1" as="geometry">
            <mxPoint x="480" y="-783" as="sourcePoint" />
            <mxPoint x="530" y="-833" as="targetPoint" />
          </mxGeometry>
        </mxCell>
        <mxCell id="I6-eAjEo8sENSfLh10Aw-131" style="edgeStyle=orthogonalEdgeStyle;rounded=0;orthogonalLoop=1;jettySize=auto;html=1;exitX=0.25;exitY=1;exitDx=0;exitDy=0;fillColor=#1ba1e2;strokeColor=#006EAF;" parent="1" source="I6-eAjEo8sENSfLh10Aw-120" edge="1">
          <mxGeometry relative="1" as="geometry">
            <mxPoint x="1418" y="-1370" as="targetPoint" />
          </mxGeometry>
        </mxCell>
        <mxCell id="I6-eAjEo8sENSfLh10Aw-120" value="Benefits" style="rounded=0;whiteSpace=wrap;html=1;fontSize=23;fillColor=#1ba1e2;strokeColor=#006EAF;fontColor=#ffffff;fontStyle=1" parent="1" vertex="1">
          <mxGeometry x="1365" y="-1430" width="210" height="60" as="geometry" />
        </mxCell>
        <mxCell id="I6-eAjEo8sENSfLh10Aw-125" value="Description" style="ellipse;whiteSpace=wrap;html=1;fontStyle=1;fillColor=#1ba1e2;strokeColor=#006EAF;fontColor=#ffffff;" parent="1" vertex="1">
          <mxGeometry x="1345" y="-1480" width="100" height="32" as="geometry" />
        </mxCell>
        <mxCell id="I6-eAjEo8sENSfLh10Aw-126" value="Benefit_ID" style="ellipse;whiteSpace=wrap;html=1;fontStyle=5;fillColor=#1ba1e2;strokeColor=#006EAF;fontColor=#ffffff;" parent="1" vertex="1">
          <mxGeometry x="1235" y="-1462" width="110" height="32" as="geometry" />
        </mxCell>
        <mxCell id="I6-eAjEo8sENSfLh10Aw-127" value="Status" style="ellipse;whiteSpace=wrap;html=1;fontStyle=1;fillColor=#1ba1e2;strokeColor=#006EAF;fontColor=#ffffff;" parent="1" vertex="1">
          <mxGeometry x="1455" y="-1480" width="90" height="32" as="geometry" />
        </mxCell>
        <mxCell id="I6-eAjEo8sENSfLh10Aw-128" value="Validity_date" style="ellipse;whiteSpace=wrap;html=1;fontStyle=1;fillColor=#1ba1e2;strokeColor=#006EAF;fontColor=#ffffff;" parent="1" vertex="1">
          <mxGeometry x="1555" y="-1480" width="130" height="32" as="geometry" />
        </mxCell>
        <mxCell id="I6-eAjEo8sENSfLh10Aw-132" value="" style="endArrow=none;html=1;rounded=0;entryX=1;entryY=1;entryDx=0;entryDy=0;exitX=0;exitY=0;exitDx=0;exitDy=0;fillColor=#1ba1e2;strokeColor=#006EAF;" parent="1" source="I6-eAjEo8sENSfLh10Aw-120" target="I6-eAjEo8sENSfLh10Aw-126" edge="1">
          <mxGeometry width="50" height="50" relative="1" as="geometry">
            <mxPoint x="1445" y="-1230" as="sourcePoint" />
            <mxPoint x="1495" y="-1280" as="targetPoint" />
          </mxGeometry>
        </mxCell>
        <mxCell id="I6-eAjEo8sENSfLh10Aw-133" value="" style="endArrow=none;html=1;rounded=0;exitX=0.25;exitY=0;exitDx=0;exitDy=0;entryX=0.5;entryY=1;entryDx=0;entryDy=0;fillColor=#1ba1e2;strokeColor=#006EAF;" parent="1" source="I6-eAjEo8sENSfLh10Aw-120" target="I6-eAjEo8sENSfLh10Aw-125" edge="1">
          <mxGeometry width="50" height="50" relative="1" as="geometry">
            <mxPoint x="1395" y="-1400" as="sourcePoint" />
            <mxPoint x="1445" y="-1450" as="targetPoint" />
          </mxGeometry>
        </mxCell>
        <mxCell id="I6-eAjEo8sENSfLh10Aw-134" value="" style="endArrow=none;html=1;rounded=0;exitX=0.655;exitY=-0.027;exitDx=0;exitDy=0;exitPerimeter=0;entryX=0.5;entryY=1;entryDx=0;entryDy=0;fillColor=#1ba1e2;strokeColor=#006EAF;" parent="1" source="I6-eAjEo8sENSfLh10Aw-120" target="I6-eAjEo8sENSfLh10Aw-127" edge="1">
          <mxGeometry width="50" height="50" relative="1" as="geometry">
            <mxPoint x="1505" y="-1420" as="sourcePoint" />
            <mxPoint x="1555" y="-1470" as="targetPoint" />
          </mxGeometry>
        </mxCell>
        <mxCell id="I6-eAjEo8sENSfLh10Aw-135" value="" style="endArrow=none;html=1;rounded=0;entryX=0;entryY=1;entryDx=0;entryDy=0;exitX=0.918;exitY=0.013;exitDx=0;exitDy=0;exitPerimeter=0;fillColor=#1ba1e2;strokeColor=#006EAF;" parent="1" source="I6-eAjEo8sENSfLh10Aw-120" target="I6-eAjEo8sENSfLh10Aw-128" edge="1">
          <mxGeometry width="50" height="50" relative="1" as="geometry">
            <mxPoint x="1445" y="-1230" as="sourcePoint" />
            <mxPoint x="1495" y="-1280" as="targetPoint" />
          </mxGeometry>
        </mxCell>
        <mxCell id="I6-eAjEo8sENSfLh10Aw-136" value="" style="endArrow=none;html=1;rounded=0;entryX=0.5;entryY=1;entryDx=0;entryDy=0;exitX=0.5;exitY=0;exitDx=0;exitDy=0;fillColor=#1ba1e2;strokeColor=#006EAF;" parent="1" source="I6-eAjEo8sENSfLh10Aw-137" target="I6-eAjEo8sENSfLh10Aw-120" edge="1">
          <mxGeometry width="50" height="50" relative="1" as="geometry">
            <mxPoint x="1470" y="-1350" as="sourcePoint" />
            <mxPoint x="1515" y="-1350" as="targetPoint" />
          </mxGeometry>
        </mxCell>
        <mxCell id="I6-eAjEo8sENSfLh10Aw-137" value="d" style="ellipse;whiteSpace=wrap;html=1;aspect=fixed;fontSize=19;fontStyle=1;fillColor=#1ba1e2;fontColor=#ffffff;strokeColor=#006EAF;" parent="1" vertex="1">
          <mxGeometry x="1635" y="-1290" width="30" height="30" as="geometry" />
        </mxCell>
        <mxCell id="I6-eAjEo8sENSfLh10Aw-141" value="" style="endArrow=none;html=1;rounded=0;entryX=0;entryY=0.5;entryDx=0;entryDy=0;exitX=0.5;exitY=0;exitDx=0;exitDy=0;fillColor=#1ba1e2;strokeColor=#006EAF;" parent="1" source="I6-eAjEo8sENSfLh10Aw-143" target="I6-eAjEo8sENSfLh10Aw-137" edge="1">
          <mxGeometry width="50" height="50" relative="1" as="geometry">
            <mxPoint x="1555" y="-1200" as="sourcePoint" />
            <mxPoint x="1675" y="-1220" as="targetPoint" />
          </mxGeometry>
        </mxCell>
        <mxCell id="I6-eAjEo8sENSfLh10Aw-143" value="Points Group" style="rounded=0;whiteSpace=wrap;html=1;fontSize=23;fillColor=#1ba1e2;strokeColor=#006EAF;fontColor=#ffffff;fontStyle=1" parent="1" vertex="1">
          <mxGeometry x="1365" y="-1226" width="210" height="60" as="geometry" />
        </mxCell>
        <mxCell id="I6-eAjEo8sENSfLh10Aw-145" value="" style="endArrow=none;html=1;rounded=0;entryX=0.25;entryY=1;entryDx=0;entryDy=0;exitX=0.5;exitY=0;exitDx=0;exitDy=0;fillColor=#1ba1e2;strokeColor=#006EAF;" parent="1" source="I6-eAjEo8sENSfLh10Aw-148" target="I6-eAjEo8sENSfLh10Aw-143" edge="1">
          <mxGeometry width="50" height="50" relative="1" as="geometry">
            <mxPoint x="1385" y="-1126" as="sourcePoint" />
            <mxPoint x="1425" y="-1156" as="targetPoint" />
          </mxGeometry>
        </mxCell>
        <mxCell id="I6-eAjEo8sENSfLh10Aw-146" value="" style="endArrow=none;html=1;rounded=0;exitX=0.94;exitY=0.275;exitDx=0;exitDy=0;exitPerimeter=0;entryX=0.116;entryY=0.947;entryDx=0;entryDy=0;fillColor=#1ba1e2;strokeColor=#006EAF;entryPerimeter=0;" parent="1" source="I6-eAjEo8sENSfLh10Aw-149" target="I6-eAjEo8sENSfLh10Aw-143" edge="1">
          <mxGeometry width="50" height="50" relative="1" as="geometry">
            <mxPoint x="1305" y="-1196" as="sourcePoint" />
            <mxPoint x="1355" y="-1246" as="targetPoint" />
          </mxGeometry>
        </mxCell>
        <mxCell id="I6-eAjEo8sENSfLh10Aw-148" value="Amount" style="ellipse;whiteSpace=wrap;html=1;fontStyle=1;fillColor=#1ba1e2;strokeColor=#006EAF;fontColor=#ffffff;" parent="1" vertex="1">
          <mxGeometry x="1395" y="-1146" width="90" height="32" as="geometry" />
        </mxCell>
        <mxCell id="I6-eAjEo8sENSfLh10Aw-149" value="Points_ID" style="ellipse;whiteSpace=wrap;html=1;fontStyle=5;fillColor=#1ba1e2;strokeColor=#006EAF;fontColor=#ffffff;" parent="1" vertex="1">
          <mxGeometry x="1275" y="-1156" width="110" height="32" as="geometry" />
        </mxCell>
        <mxCell id="I6-eAjEo8sENSfLh10Aw-154" value="Exclusive Offer" style="rounded=0;whiteSpace=wrap;html=1;fontSize=23;fillColor=#1ba1e2;strokeColor=#006EAF;fontColor=#ffffff;fontStyle=1" parent="1" vertex="1">
          <mxGeometry x="1595" y="-1174" width="210" height="60" as="geometry" />
        </mxCell>
        <mxCell id="I6-eAjEo8sENSfLh10Aw-155" value="" style="endArrow=none;html=1;rounded=0;entryX=0.25;entryY=1;entryDx=0;entryDy=0;exitX=0.284;exitY=-0.05;exitDx=0;exitDy=0;fillColor=#1ba1e2;strokeColor=#006EAF;exitPerimeter=0;" parent="1" source="I6-eAjEo8sENSfLh10Aw-157" target="I6-eAjEo8sENSfLh10Aw-154" edge="1">
          <mxGeometry width="50" height="50" relative="1" as="geometry">
            <mxPoint x="1655" y="-1068" as="sourcePoint" />
            <mxPoint x="1695" y="-1098" as="targetPoint" />
          </mxGeometry>
        </mxCell>
        <mxCell id="I6-eAjEo8sENSfLh10Aw-156" value="" style="endArrow=none;html=1;rounded=0;exitX=0.5;exitY=0;exitDx=0;exitDy=0;entryX=0.116;entryY=0.947;entryDx=0;entryDy=0;fillColor=#1ba1e2;strokeColor=#006EAF;entryPerimeter=0;" parent="1" source="I6-eAjEo8sENSfLh10Aw-158" target="I6-eAjEo8sENSfLh10Aw-154" edge="1">
          <mxGeometry width="50" height="50" relative="1" as="geometry">
            <mxPoint x="1575" y="-1138" as="sourcePoint" />
            <mxPoint x="1625" y="-1188" as="targetPoint" />
          </mxGeometry>
        </mxCell>
        <mxCell id="I6-eAjEo8sENSfLh10Aw-157" value="Internet_GB" style="ellipse;whiteSpace=wrap;html=1;fontStyle=1;fillColor=#1ba1e2;strokeColor=#006EAF;fontColor=#ffffff;" parent="1" vertex="1">
          <mxGeometry x="1635" y="-1074" width="90" height="32" as="geometry" />
        </mxCell>
        <mxCell id="I6-eAjEo8sENSfLh10Aw-158" value="Offer_ID" style="ellipse;whiteSpace=wrap;html=1;fontStyle=5;fillColor=#1ba1e2;strokeColor=#006EAF;fontColor=#ffffff;" parent="1" vertex="1">
          <mxGeometry x="1535" y="-1101" width="110" height="32" as="geometry" />
        </mxCell>
        <mxCell id="I6-eAjEo8sENSfLh10Aw-159" value="" style="endArrow=none;html=1;rounded=0;entryX=0.5;entryY=0;entryDx=0;entryDy=0;exitX=1;exitY=1;exitDx=0;exitDy=0;fillColor=#1ba1e2;strokeColor=#006EAF;" parent="1" source="I6-eAjEo8sENSfLh10Aw-137" target="I6-eAjEo8sENSfLh10Aw-154" edge="1">
          <mxGeometry width="50" height="50" relative="1" as="geometry">
            <mxPoint x="1480" y="-1216" as="sourcePoint" />
            <mxPoint x="1645" y="-1265" as="targetPoint" />
          </mxGeometry>
        </mxCell>
        <mxCell id="I6-eAjEo8sENSfLh10Aw-160" value="Number_of_SMS" style="ellipse;whiteSpace=wrap;html=1;fontStyle=1;fillColor=#1ba1e2;strokeColor=#006EAF;fontColor=#ffffff;" parent="1" vertex="1">
          <mxGeometry x="1675" y="-1106" width="110" height="32" as="geometry" />
        </mxCell>
        <mxCell id="I6-eAjEo8sENSfLh10Aw-162" value="" style="endArrow=none;html=1;rounded=0;entryX=0.5;entryY=1;entryDx=0;entryDy=0;exitX=0;exitY=0;exitDx=0;exitDy=0;fillColor=#1ba1e2;strokeColor=#006EAF;" parent="1" source="I6-eAjEo8sENSfLh10Aw-160" target="I6-eAjEo8sENSfLh10Aw-154" edge="1">
          <mxGeometry width="50" height="50" relative="1" as="geometry">
            <mxPoint x="1671" y="-1066" as="sourcePoint" />
            <mxPoint x="1658" y="-1104" as="targetPoint" />
          </mxGeometry>
        </mxCell>
        <mxCell id="I6-eAjEo8sENSfLh10Aw-163" value="Call_minutes" style="ellipse;whiteSpace=wrap;html=1;fontStyle=1;fillColor=#1ba1e2;strokeColor=#006EAF;fontColor=#ffffff;" parent="1" vertex="1">
          <mxGeometry x="1765" y="-1073" width="110" height="32" as="geometry" />
        </mxCell>
        <mxCell id="I6-eAjEo8sENSfLh10Aw-164" value="" style="endArrow=none;html=1;rounded=0;entryX=1;entryY=1;entryDx=0;entryDy=0;exitX=0.5;exitY=0;exitDx=0;exitDy=0;fillColor=#1ba1e2;strokeColor=#006EAF;" parent="1" source="I6-eAjEo8sENSfLh10Aw-163" target="I6-eAjEo8sENSfLh10Aw-154" edge="1">
          <mxGeometry width="50" height="50" relative="1" as="geometry">
            <mxPoint x="1721" y="-1087" as="sourcePoint" />
            <mxPoint x="1710" y="-1104" as="targetPoint" />
          </mxGeometry>
        </mxCell>
        <mxCell id="I6-eAjEo8sENSfLh10Aw-167" value="" style="endArrow=none;html=1;rounded=0;entryX=1;entryY=0.5;entryDx=0;entryDy=0;exitX=0.5;exitY=0;exitDx=0;exitDy=0;fillColor=#1ba1e2;strokeColor=#006EAF;" parent="1" source="I6-eAjEo8sENSfLh10Aw-168" target="I6-eAjEo8sENSfLh10Aw-137" edge="1">
          <mxGeometry width="50" height="50" relative="1" as="geometry">
            <mxPoint x="1965" y="-1196" as="sourcePoint" />
            <mxPoint x="1615" y="-1216" as="targetPoint" />
          </mxGeometry>
        </mxCell>
        <mxCell id="I6-eAjEo8sENSfLh10Aw-168" value="Cashback" style="rounded=0;whiteSpace=wrap;html=1;fontSize=23;fillColor=#1ba1e2;strokeColor=#006EAF;fontColor=#ffffff;fontStyle=1" parent="1" vertex="1">
          <mxGeometry x="1905" y="-1196.5" width="210" height="60" as="geometry" />
        </mxCell>
        <mxCell id="I6-eAjEo8sENSfLh10Aw-169" value="" style="endArrow=none;html=1;rounded=0;entryX=0.25;entryY=1;entryDx=0;entryDy=0;exitX=0.284;exitY=-0.05;exitDx=0;exitDy=0;fillColor=#1ba1e2;strokeColor=#006EAF;exitPerimeter=0;" parent="1" source="I6-eAjEo8sENSfLh10Aw-171" target="I6-eAjEo8sENSfLh10Aw-168" edge="1">
          <mxGeometry width="50" height="50" relative="1" as="geometry">
            <mxPoint x="1965" y="-1090.5" as="sourcePoint" />
            <mxPoint x="2005" y="-1120.5" as="targetPoint" />
          </mxGeometry>
        </mxCell>
        <mxCell id="I6-eAjEo8sENSfLh10Aw-171" value="Cashback_ID" style="ellipse;whiteSpace=wrap;html=1;fontStyle=5;fillColor=#1ba1e2;strokeColor=#006EAF;fontColor=#ffffff;" parent="1" vertex="1">
          <mxGeometry x="1895" y="-1121.5" width="90" height="32" as="geometry" />
        </mxCell>
        <mxCell id="I6-eAjEo8sENSfLh10Aw-172" value="Credit_date" style="ellipse;whiteSpace=wrap;html=1;fontStyle=1;fillColor=#1ba1e2;strokeColor=#006EAF;fontColor=#ffffff;" parent="1" vertex="1">
          <mxGeometry x="1995" y="-1124" width="110" height="32" as="geometry" />
        </mxCell>
        <mxCell id="I6-eAjEo8sENSfLh10Aw-173" value="" style="endArrow=none;html=1;rounded=0;entryX=0.65;entryY=1.002;entryDx=0;entryDy=0;exitX=0.5;exitY=0;exitDx=0;exitDy=0;fillColor=#1ba1e2;strokeColor=#006EAF;entryPerimeter=0;" parent="1" source="I6-eAjEo8sENSfLh10Aw-172" target="I6-eAjEo8sENSfLh10Aw-168" edge="1">
          <mxGeometry width="50" height="50" relative="1" as="geometry">
            <mxPoint x="1981" y="-1088.5" as="sourcePoint" />
            <mxPoint x="1968" y="-1126.5" as="targetPoint" />
          </mxGeometry>
        </mxCell>
        <mxCell id="I6-eAjEo8sENSfLh10Aw-174" value="Amount" style="ellipse;whiteSpace=wrap;html=1;fontStyle=1;fillColor=#1ba1e2;strokeColor=#006EAF;fontColor=#ffffff;" parent="1" vertex="1">
          <mxGeometry x="2075" y="-1095.5" width="110" height="32" as="geometry" />
        </mxCell>
        <mxCell id="I6-eAjEo8sENSfLh10Aw-175" value="" style="endArrow=none;html=1;rounded=0;entryX=1;entryY=1;entryDx=0;entryDy=0;exitX=0.5;exitY=0;exitDx=0;exitDy=0;fillColor=#1ba1e2;strokeColor=#006EAF;" parent="1" source="I6-eAjEo8sENSfLh10Aw-174" target="I6-eAjEo8sENSfLh10Aw-168" edge="1">
          <mxGeometry width="50" height="50" relative="1" as="geometry">
            <mxPoint x="2031" y="-1109.5" as="sourcePoint" />
            <mxPoint x="2020" y="-1126.5" as="targetPoint" />
          </mxGeometry>
        </mxCell>
        <mxCell id="I6-eAjEo8sENSfLh10Aw-177" value="Voucher" style="rounded=0;whiteSpace=wrap;html=1;fontSize=23;fillColor=#a0522d;strokeColor=#6D1F00;fontColor=#ffffff;fontStyle=1" parent="1" vertex="1">
          <mxGeometry x="940" y="-1600" width="210" height="60" as="geometry" />
        </mxCell>
        <mxCell id="I6-eAjEo8sENSfLh10Aw-178" value="Expire_date" style="ellipse;whiteSpace=wrap;html=1;fontStyle=1;fillColor=#a0522d;fontColor=#ffffff;strokeColor=#6D1F00;" parent="1" vertex="1">
          <mxGeometry x="1087.5" y="-1670" width="90" height="40" as="geometry" />
        </mxCell>
        <mxCell id="I6-eAjEo8sENSfLh10Aw-179" value="Points_required" style="ellipse;whiteSpace=wrap;html=1;fontStyle=1;fillColor=#a0522d;fontColor=#ffffff;strokeColor=#6D1F00;" parent="1" vertex="1">
          <mxGeometry x="1177.5" y="-1650" width="130" height="32" as="geometry" />
        </mxCell>
        <mxCell id="I6-eAjEo8sENSfLh10Aw-180" value="" style="endArrow=none;html=1;rounded=0;exitX=0.5;exitY=0;exitDx=0;exitDy=0;fillColor=#a0522d;strokeColor=#6D1F00;" parent="1" source="I6-eAjEo8sENSfLh10Aw-184" edge="1">
          <mxGeometry width="50" height="50" relative="1" as="geometry">
            <mxPoint x="960" y="-1500" as="sourcePoint" />
            <mxPoint x="960" y="-1600" as="targetPoint" />
          </mxGeometry>
        </mxCell>
        <mxCell id="I6-eAjEo8sENSfLh10Aw-181" value="" style="endArrow=none;html=1;rounded=0;exitX=0.94;exitY=0.275;exitDx=0;exitDy=0;exitPerimeter=0;entryX=0.333;entryY=-0.033;entryDx=0;entryDy=0;fillColor=#a0522d;strokeColor=#6D1F00;entryPerimeter=0;" parent="1" source="I6-eAjEo8sENSfLh10Aw-185" target="I6-eAjEo8sENSfLh10Aw-177" edge="1">
          <mxGeometry width="50" height="50" relative="1" as="geometry">
            <mxPoint x="880" y="-1570" as="sourcePoint" />
            <mxPoint x="930" y="-1620" as="targetPoint" />
          </mxGeometry>
        </mxCell>
        <mxCell id="I6-eAjEo8sENSfLh10Aw-182" value="" style="endArrow=none;html=1;rounded=0;entryX=1;entryY=0;entryDx=0;entryDy=0;exitX=0.35;exitY=0.125;exitDx=0;exitDy=0;exitPerimeter=0;fillColor=#a0522d;strokeColor=#6D1F00;" parent="1" source="I6-eAjEo8sENSfLh10Aw-179" target="I6-eAjEo8sENSfLh10Aw-177" edge="1">
          <mxGeometry width="50" height="50" relative="1" as="geometry">
            <mxPoint x="1120" y="-1500" as="sourcePoint" />
            <mxPoint x="1155" y="-1550" as="targetPoint" />
          </mxGeometry>
        </mxCell>
        <mxCell id="I6-eAjEo8sENSfLh10Aw-183" value="" style="endArrow=none;html=1;rounded=0;entryX=0.657;entryY=-0.056;entryDx=0;entryDy=0;exitX=0.5;exitY=1;exitDx=0;exitDy=0;entryPerimeter=0;fillColor=#a0522d;strokeColor=#6D1F00;" parent="1" source="I6-eAjEo8sENSfLh10Aw-178" target="I6-eAjEo8sENSfLh10Aw-177" edge="1">
          <mxGeometry width="50" height="50" relative="1" as="geometry">
            <mxPoint x="950" y="-1470" as="sourcePoint" />
            <mxPoint x="1000" y="-1520" as="targetPoint" />
          </mxGeometry>
        </mxCell>
        <mxCell id="I6-eAjEo8sENSfLh10Aw-184" value="Value" style="ellipse;whiteSpace=wrap;html=1;fontStyle=1;fillColor=#a0522d;fontColor=#ffffff;strokeColor=#6D1F00;" parent="1" vertex="1">
          <mxGeometry x="882.5" y="-1650" width="95" height="32" as="geometry" />
        </mxCell>
        <mxCell id="I6-eAjEo8sENSfLh10Aw-185" value="Voucher_ID" style="ellipse;whiteSpace=wrap;html=1;fontStyle=5;fillColor=#a0522d;fontColor=#ffffff;strokeColor=#6D1F00;" parent="1" vertex="1">
          <mxGeometry x="977.5" y="-1650" width="110" height="32" as="geometry" />
        </mxCell>
        <mxCell id="I6-eAjEo8sENSfLh10Aw-188" style="edgeStyle=orthogonalEdgeStyle;rounded=0;orthogonalLoop=1;jettySize=auto;html=1;exitX=0.25;exitY=1;exitDx=0;exitDy=0;fillColor=#fa6800;strokeColor=#C73500;" parent="1" edge="1">
          <mxGeometry relative="1" as="geometry">
            <mxPoint x="343" y="-1589.02" as="targetPoint" />
            <mxPoint x="342.5" y="-1589.0200000000002" as="sourcePoint" />
          </mxGeometry>
        </mxCell>
        <mxCell id="I6-eAjEo8sENSfLh10Aw-189" value="Shop" style="rounded=0;whiteSpace=wrap;html=1;fontSize=23;fillColor=#fa6800;strokeColor=#C73500;fontColor=#000000;fontStyle=1" parent="1" vertex="1">
          <mxGeometry x="290" y="-1667" width="210" height="60" as="geometry" />
        </mxCell>
        <mxCell id="I6-eAjEo8sENSfLh10Aw-190" value="Name" style="ellipse;whiteSpace=wrap;html=1;fontStyle=1;fillColor=#fa6800;strokeColor=#C73500;fontColor=#000000;" parent="1" vertex="1">
          <mxGeometry x="270" y="-1717" width="100" height="32" as="geometry" />
        </mxCell>
        <mxCell id="I6-eAjEo8sENSfLh10Aw-191" value="Shop_ID" style="ellipse;whiteSpace=wrap;html=1;fontStyle=5;fillColor=#fa6800;strokeColor=#C73500;fontColor=#000000;" parent="1" vertex="1">
          <mxGeometry x="160" y="-1699" width="110" height="32" as="geometry" />
        </mxCell>
        <mxCell id="I6-eAjEo8sENSfLh10Aw-194" value="" style="endArrow=none;html=1;rounded=0;entryX=1;entryY=1;entryDx=0;entryDy=0;exitX=0;exitY=0;exitDx=0;exitDy=0;fillColor=#fa6800;strokeColor=#C73500;" parent="1" source="I6-eAjEo8sENSfLh10Aw-189" target="I6-eAjEo8sENSfLh10Aw-191" edge="1">
          <mxGeometry width="50" height="50" relative="1" as="geometry">
            <mxPoint x="370" y="-1467" as="sourcePoint" />
            <mxPoint x="420" y="-1517" as="targetPoint" />
          </mxGeometry>
        </mxCell>
        <mxCell id="I6-eAjEo8sENSfLh10Aw-195" value="" style="endArrow=none;html=1;rounded=0;exitX=0.25;exitY=0;exitDx=0;exitDy=0;entryX=0.5;entryY=1;entryDx=0;entryDy=0;fillColor=#fa6800;strokeColor=#C73500;" parent="1" source="I6-eAjEo8sENSfLh10Aw-189" target="I6-eAjEo8sENSfLh10Aw-190" edge="1">
          <mxGeometry width="50" height="50" relative="1" as="geometry">
            <mxPoint x="320" y="-1637" as="sourcePoint" />
            <mxPoint x="370" y="-1687" as="targetPoint" />
          </mxGeometry>
        </mxCell>
        <mxCell id="I6-eAjEo8sENSfLh10Aw-198" style="edgeStyle=orthogonalEdgeStyle;rounded=0;orthogonalLoop=1;jettySize=auto;html=1;exitX=0.25;exitY=1;exitDx=0;exitDy=0;fillColor=#fa6800;strokeColor=#C73500;" parent="1" edge="1">
          <mxGeometry relative="1" as="geometry">
            <mxPoint x="323" y="-1518" as="targetPoint" />
            <mxPoint x="323" y="-1518" as="sourcePoint" />
          </mxGeometry>
        </mxCell>
        <mxCell id="I6-eAjEo8sENSfLh10Aw-200" value="d" style="ellipse;whiteSpace=wrap;html=1;aspect=fixed;fontSize=19;fontStyle=1;fillColor=#fa6800;fontColor=#000000;strokeColor=#C73500;" parent="1" vertex="1">
          <mxGeometry x="380" y="-1543" width="30" height="30" as="geometry" />
        </mxCell>
        <mxCell id="I6-eAjEo8sENSfLh10Aw-201" value="" style="endArrow=none;html=1;rounded=0;entryX=0;entryY=0.5;entryDx=0;entryDy=0;exitX=0.5;exitY=0;exitDx=0;exitDy=0;fillColor=#fa6800;strokeColor=#C73500;" parent="1" source="I6-eAjEo8sENSfLh10Aw-202" target="I6-eAjEo8sENSfLh10Aw-200" edge="1">
          <mxGeometry width="50" height="50" relative="1" as="geometry">
            <mxPoint x="280" y="-1408" as="sourcePoint" />
            <mxPoint x="400" y="-1428" as="targetPoint" />
          </mxGeometry>
        </mxCell>
        <mxCell id="I6-eAjEo8sENSfLh10Aw-202" value="Physical Shop" style="rounded=0;whiteSpace=wrap;html=1;fontSize=23;fillColor=#fa6800;strokeColor=#C73500;fontColor=#000000;fontStyle=1" parent="1" vertex="1">
          <mxGeometry x="120" y="-1495" width="210" height="60" as="geometry" />
        </mxCell>
        <mxCell id="I6-eAjEo8sENSfLh10Aw-203" value="" style="endArrow=none;html=1;rounded=0;entryX=0.25;entryY=1;entryDx=0;entryDy=0;exitX=0.5;exitY=0;exitDx=0;exitDy=0;fillColor=#fa6800;strokeColor=#C73500;" parent="1" source="I6-eAjEo8sENSfLh10Aw-205" target="I6-eAjEo8sENSfLh10Aw-202" edge="1">
          <mxGeometry width="50" height="50" relative="1" as="geometry">
            <mxPoint x="110" y="-1334" as="sourcePoint" />
            <mxPoint x="150" y="-1364" as="targetPoint" />
          </mxGeometry>
        </mxCell>
        <mxCell id="I6-eAjEo8sENSfLh10Aw-204" value="" style="endArrow=none;html=1;rounded=0;fillColor=#fa6800;strokeColor=#C73500;exitX=0.5;exitY=0;exitDx=0;exitDy=0;entryX=0;entryY=1;entryDx=0;entryDy=0;" parent="1" source="I6-eAjEo8sENSfLh10Aw-220" target="I6-eAjEo8sENSfLh10Aw-202" edge="1">
          <mxGeometry width="50" height="50" relative="1" as="geometry">
            <mxPoint x="90" y="-1409" as="sourcePoint" />
            <mxPoint x="120" y="-1429" as="targetPoint" />
          </mxGeometry>
        </mxCell>
        <mxCell id="I6-eAjEo8sENSfLh10Aw-205" value="Address" style="ellipse;whiteSpace=wrap;html=1;fontStyle=1;fillColor=#fa6800;strokeColor=#C73500;fontColor=#000000;" parent="1" vertex="1">
          <mxGeometry x="130" y="-1403" width="90" height="32" as="geometry" />
        </mxCell>
        <mxCell id="I6-eAjEo8sENSfLh10Aw-206" value="E-shop" style="rounded=0;whiteSpace=wrap;html=1;fontSize=23;fillColor=#fa6800;strokeColor=#C73500;fontColor=#000000;fontStyle=1" parent="1" vertex="1">
          <mxGeometry x="410" y="-1487" width="210" height="60" as="geometry" />
        </mxCell>
        <mxCell id="I6-eAjEo8sENSfLh10Aw-207" value="" style="endArrow=none;html=1;rounded=0;entryX=0.25;entryY=1;entryDx=0;entryDy=0;exitX=0.284;exitY=-0.05;exitDx=0;exitDy=0;fillColor=#fa6800;strokeColor=#C73500;exitPerimeter=0;" parent="1" source="I6-eAjEo8sENSfLh10Aw-209" target="I6-eAjEo8sENSfLh10Aw-206" edge="1">
          <mxGeometry width="50" height="50" relative="1" as="geometry">
            <mxPoint x="380" y="-1276" as="sourcePoint" />
            <mxPoint x="420" y="-1306" as="targetPoint" />
          </mxGeometry>
        </mxCell>
        <mxCell id="I6-eAjEo8sENSfLh10Aw-209" value="Website_URL" style="ellipse;whiteSpace=wrap;html=1;fontStyle=1;fillColor=#fa6800;strokeColor=#C73500;fontColor=#000000;" parent="1" vertex="1">
          <mxGeometry x="400" y="-1415" width="90" height="32" as="geometry" />
        </mxCell>
        <mxCell id="I6-eAjEo8sENSfLh10Aw-211" value="" style="endArrow=none;html=1;rounded=0;entryX=0.5;entryY=0;entryDx=0;entryDy=0;exitX=1;exitY=1;exitDx=0;exitDy=0;fillColor=#fa6800;strokeColor=#C73500;" parent="1" source="I6-eAjEo8sENSfLh10Aw-200" target="I6-eAjEo8sENSfLh10Aw-206" edge="1">
          <mxGeometry width="50" height="50" relative="1" as="geometry">
            <mxPoint x="205" y="-1424" as="sourcePoint" />
            <mxPoint x="370" y="-1473" as="targetPoint" />
          </mxGeometry>
        </mxCell>
        <mxCell id="I6-eAjEo8sENSfLh10Aw-212" value="Rating" style="ellipse;whiteSpace=wrap;html=1;fontStyle=1;fillColor=#fa6800;strokeColor=#C73500;fontColor=#000000;" parent="1" vertex="1">
          <mxGeometry x="510" y="-1417" width="110" height="32" as="geometry" />
        </mxCell>
        <mxCell id="I6-eAjEo8sENSfLh10Aw-213" value="" style="endArrow=none;html=1;rounded=0;entryX=0.5;entryY=1;entryDx=0;entryDy=0;exitX=0;exitY=0;exitDx=0;exitDy=0;fillColor=#fa6800;strokeColor=#C73500;" parent="1" source="I6-eAjEo8sENSfLh10Aw-212" target="I6-eAjEo8sENSfLh10Aw-206" edge="1">
          <mxGeometry width="50" height="50" relative="1" as="geometry">
            <mxPoint x="396" y="-1274" as="sourcePoint" />
            <mxPoint x="383" y="-1312" as="targetPoint" />
          </mxGeometry>
        </mxCell>
        <mxCell id="I6-eAjEo8sENSfLh10Aw-220" value="Working_hours" style="ellipse;whiteSpace=wrap;html=1;fontStyle=1;fillColor=#fa6800;strokeColor=#C73500;fontColor=#000000;" parent="1" vertex="1">
          <mxGeometry x="20" y="-1427" width="100" height="32" as="geometry" />
        </mxCell>
        <mxCell id="I6-eAjEo8sENSfLh10Aw-223" value="Priority_level" style="ellipse;whiteSpace=wrap;html=1;fontStyle=1;fillColor=#008a00;strokeColor=#005700;fontColor=#ffffff;" parent="1" vertex="1">
          <mxGeometry x="150" y="-1095.5" width="90" height="40" as="geometry" />
        </mxCell>
        <mxCell id="I6-eAjEo8sENSfLh10Aw-224" value="Status" style="ellipse;whiteSpace=wrap;html=1;fontStyle=1;fillColor=#008a00;strokeColor=#005700;fontColor=#ffffff;" parent="1" vertex="1">
          <mxGeometry x="195" y="-1147.5" width="80" height="32" as="geometry" />
        </mxCell>
        <mxCell id="I6-eAjEo8sENSfLh10Aw-225" value="" style="endArrow=none;html=1;rounded=0;entryX=0.003;entryY=0.196;entryDx=0;entryDy=0;exitX=0.5;exitY=0;exitDx=0;exitDy=0;fillColor=#008a00;strokeColor=#005700;entryPerimeter=0;" parent="1" source="I6-eAjEo8sENSfLh10Aw-229" target="I6-eAjEo8sENSfLh10Aw-235" edge="1">
          <mxGeometry width="50" height="50" relative="1" as="geometry">
            <mxPoint x="95" y="-1097.5" as="sourcePoint" />
            <mxPoint x="151.25000000000023" y="-1157.5" as="targetPoint" />
          </mxGeometry>
        </mxCell>
        <mxCell id="I6-eAjEo8sENSfLh10Aw-226" value="" style="endArrow=none;html=1;rounded=0;exitX=0.94;exitY=0.275;exitDx=0;exitDy=0;exitPerimeter=0;entryX=0.003;entryY=0.088;entryDx=0;entryDy=0;fillColor=#008a00;strokeColor=#005700;entryPerimeter=0;" parent="1" source="I6-eAjEo8sENSfLh10Aw-230" target="I6-eAjEo8sENSfLh10Aw-235" edge="1">
          <mxGeometry width="50" height="50" relative="1" as="geometry">
            <mxPoint x="15" y="-1167.5" as="sourcePoint" />
            <mxPoint x="110.00000000000023" y="-1157.5" as="targetPoint" />
          </mxGeometry>
        </mxCell>
        <mxCell id="I6-eAjEo8sENSfLh10Aw-227" value="" style="endArrow=none;html=1;rounded=0;entryX=-0.021;entryY=0.647;entryDx=0;entryDy=0;exitX=0.35;exitY=0.125;exitDx=0;exitDy=0;exitPerimeter=0;fillColor=#008a00;strokeColor=#005700;entryPerimeter=0;" parent="1" source="I6-eAjEo8sENSfLh10Aw-224" target="I6-eAjEo8sENSfLh10Aw-235" edge="1">
          <mxGeometry width="50" height="50" relative="1" as="geometry">
            <mxPoint x="255" y="-1097.5" as="sourcePoint" />
            <mxPoint x="233.75" y="-1157.5" as="targetPoint" />
          </mxGeometry>
        </mxCell>
        <mxCell id="I6-eAjEo8sENSfLh10Aw-228" value="" style="endArrow=none;html=1;rounded=0;entryX=-0.003;entryY=0.428;entryDx=0;entryDy=0;exitX=0.5;exitY=0;exitDx=0;exitDy=0;entryPerimeter=0;fillColor=#008a00;strokeColor=#005700;" parent="1" source="I6-eAjEo8sENSfLh10Aw-223" target="I6-eAjEo8sENSfLh10Aw-235" edge="1">
          <mxGeometry width="50" height="50" relative="1" as="geometry">
            <mxPoint x="85" y="-1067.5" as="sourcePoint" />
            <mxPoint x="204.21500000000015" y="-1155.1799999999998" as="targetPoint" />
          </mxGeometry>
        </mxCell>
        <mxCell id="I6-eAjEo8sENSfLh10Aw-229" value="Issue_Despcription" style="ellipse;whiteSpace=wrap;html=1;fontStyle=1;fillColor=#008a00;strokeColor=#005700;fontColor=#ffffff;" parent="1" vertex="1">
          <mxGeometry x="52.5" y="-1137.5" width="122.5" height="32" as="geometry" />
        </mxCell>
        <mxCell id="I6-eAjEo8sENSfLh10Aw-230" value="Ticket_ID" style="ellipse;whiteSpace=wrap;html=1;fontStyle=5;fillColor=#008a00;strokeColor=#005700;fontColor=#ffffff;" parent="1" vertex="1">
          <mxGeometry x="-65" y="-1147.5" width="110" height="32" as="geometry" />
        </mxCell>
        <mxCell id="I6-eAjEo8sENSfLh10Aw-235" value="t" style="verticalLabelPosition=bottom;verticalAlign=top;html=1;shadow=0;dashed=0;strokeWidth=1;shape=mxgraph.android.tab2;strokeColor=#005700;direction=north;fillColor=#008a00;fontColor=#ffffff;" parent="1" vertex="1">
          <mxGeometry x="90" y="-1277.5" width="210" height="110" as="geometry" />
        </mxCell>
        <mxCell id="I6-eAjEo8sENSfLh10Aw-236" value="Technical Support Ticket" style="text;strokeColor=#005700;align=center;fillColor=#008a00;html=1;verticalAlign=middle;whiteSpace=wrap;rounded=0;fontStyle=1;fontColor=#ffffff;" parent="1" vertex="1">
          <mxGeometry x="120" y="-1252.5" width="150" height="60" as="geometry" />
        </mxCell>
        <mxCell id="I6-eAjEo8sENSfLh10Aw-237" value="" style="shape=mxgraph.pid.feeders.spray_nozzle;html=1;pointerEvents=1;align=center;verticalLabelPosition=bottom;verticalAlign=top;dashed=0;direction=north;" parent="1" vertex="1">
          <mxGeometry x="1603.75" y="-645" width="17.5" height="33" as="geometry" />
        </mxCell>
        <mxCell id="I6-eAjEo8sENSfLh10Aw-239" value="" style="endArrow=none;html=1;rounded=0;exitX=1;exitY=0.5;exitDx=0;exitDy=0;entryX=0.5;entryY=0.5;entryDx=0;entryDy=0;entryPerimeter=0;" parent="1" source="I6-eAjEo8sENSfLh10Aw-240" target="I6-eAjEo8sENSfLh10Aw-257" edge="1">
          <mxGeometry width="50" height="50" relative="1" as="geometry">
            <mxPoint x="1440" y="-630" as="sourcePoint" />
            <mxPoint x="1540" y="-710" as="targetPoint" />
          </mxGeometry>
        </mxCell>
        <mxCell id="I6-eAjEo8sENSfLh10Aw-240" value="Subscribe" style="rhombus;whiteSpace=wrap;html=1;fontStyle=1;fontSize=15;fillColor=#fff2cc;strokeColor=#d6b656;gradientColor=#ffd966;" parent="1" vertex="1">
          <mxGeometry x="1342.5" y="-680" width="110" height="80" as="geometry" />
        </mxCell>
        <mxCell id="I6-eAjEo8sENSfLh10Aw-246" value="" style="endArrow=none;html=1;rounded=0;entryX=0;entryY=0.5;entryDx=0;entryDy=0;exitX=1;exitY=0.5;exitDx=0;exitDy=0;" parent="1" source="I6-eAjEo8sENSfLh10Aw-250" target="I6-eAjEo8sENSfLh10Aw-240" edge="1">
          <mxGeometry width="50" height="50" relative="1" as="geometry">
            <mxPoint x="1160" y="-627" as="sourcePoint" />
            <mxPoint x="1350" y="-580" as="targetPoint" />
          </mxGeometry>
        </mxCell>
        <mxCell id="I6-eAjEo8sENSfLh10Aw-247" value="" style="shape=mxgraph.pid.feeders.spray_nozzle;html=1;pointerEvents=1;align=center;verticalLabelPosition=bottom;verticalAlign=top;dashed=0;direction=south;" parent="1" vertex="1">
          <mxGeometry x="1100" y="-668" width="17.5" height="33" as="geometry" />
        </mxCell>
        <mxCell id="I6-eAjEo8sENSfLh10Aw-251" value="" style="endArrow=none;html=1;rounded=0;entryX=0;entryY=0.5;entryDx=0;entryDy=0;exitX=0.5;exitY=0;exitDx=0;exitDy=0;exitPerimeter=0;" parent="1" source="I6-eAjEo8sENSfLh10Aw-247" target="I6-eAjEo8sENSfLh10Aw-250" edge="1">
          <mxGeometry width="50" height="50" relative="1" as="geometry">
            <mxPoint x="1118" y="-620" as="sourcePoint" />
            <mxPoint x="1300" y="-620" as="targetPoint" />
          </mxGeometry>
        </mxCell>
        <mxCell id="I6-eAjEo8sENSfLh10Aw-250" value="" style="ellipse;whiteSpace=wrap;html=1;aspect=fixed;" parent="1" vertex="1">
          <mxGeometry x="1113.75" y="-659" width="15" height="15" as="geometry" />
        </mxCell>
        <mxCell id="I6-eAjEo8sENSfLh10Aw-253" value="" style="endArrow=none;html=1;rounded=0;exitX=1;exitY=0;exitDx=0;exitDy=0;fillColor=#fff2cc;gradientColor=#ffd966;strokeColor=#d6b656;entryX=0;entryY=1;entryDx=0;entryDy=0;" parent="1" source="I6-eAjEo8sENSfLh10Aw-273" target="I6-eAjEo8sENSfLh10Aw-240" edge="1">
          <mxGeometry width="50" height="50" relative="1" as="geometry">
            <mxPoint x="1300" y="-530" as="sourcePoint" />
            <mxPoint x="1350" y="-580" as="targetPoint" />
          </mxGeometry>
        </mxCell>
        <mxCell id="I6-eAjEo8sENSfLh10Aw-257" value="" style="verticalLabelPosition=bottom;align=center;dashed=0;html=1;verticalAlign=top;shape=mxgraph.pid.fittings.single_flange;" parent="1" vertex="1">
          <mxGeometry x="1598.75" y="-645" width="5" height="30" as="geometry" />
        </mxCell>
        <mxCell id="I6-eAjEo8sENSfLh10Aw-267" value="" style="endArrow=none;html=1;rounded=0;exitX=0.5;exitY=0.5;exitDx=0;exitDy=0;exitPerimeter=0;entryX=0.5;entryY=0;entryDx=0;entryDy=0;entryPerimeter=0;" parent="1" source="I6-eAjEo8sENSfLh10Aw-257" target="I6-eAjEo8sENSfLh10Aw-237" edge="1">
          <mxGeometry width="50" height="50" relative="1" as="geometry">
            <mxPoint x="1580" y="-670" as="sourcePoint" />
            <mxPoint x="1630" y="-720" as="targetPoint" />
          </mxGeometry>
        </mxCell>
        <mxCell id="I6-eAjEo8sENSfLh10Aw-272" value="Status" style="ellipse;whiteSpace=wrap;html=1;fontStyle=1;fillColor=#fff2cc;strokeColor=#d6b656;gradientColor=#ffd966;" parent="1" vertex="1">
          <mxGeometry x="1375" y="-558" width="95" height="32" as="geometry" />
        </mxCell>
        <mxCell id="I6-eAjEo8sENSfLh10Aw-273" value="Subscription_date" style="ellipse;whiteSpace=wrap;html=1;fontStyle=1;fillColor=#fff2cc;strokeColor=#d6b656;gradientColor=#ffd966;" parent="1" vertex="1">
          <mxGeometry x="1235" y="-558" width="120" height="32" as="geometry" />
        </mxCell>
        <mxCell id="I6-eAjEo8sENSfLh10Aw-274" value="" style="endArrow=none;html=1;rounded=0;entryX=1;entryY=1;entryDx=0;entryDy=0;fillColor=#fff2cc;gradientColor=#ffd966;strokeColor=#d6b656;" parent="1" target="I6-eAjEo8sENSfLh10Aw-240" edge="1">
          <mxGeometry width="50" height="50" relative="1" as="geometry">
            <mxPoint x="1400" y="-560" as="sourcePoint" />
            <mxPoint x="1360" y="-450" as="targetPoint" />
          </mxGeometry>
        </mxCell>
        <mxCell id="I6-eAjEo8sENSfLh10Aw-278" value="" style="shape=mxgraph.pid.feeders.spray_nozzle;html=1;pointerEvents=1;align=center;verticalLabelPosition=bottom;verticalAlign=top;dashed=0;direction=north;" parent="1" vertex="1">
          <mxGeometry x="1251.25" y="-340.5" width="17.5" height="33" as="geometry" />
        </mxCell>
        <mxCell id="I6-eAjEo8sENSfLh10Aw-279" value="" style="endArrow=none;html=1;rounded=0;entryX=0.5;entryY=0.5;entryDx=0;entryDy=0;entryPerimeter=0;" parent="1" target="I6-eAjEo8sENSfLh10Aw-285" edge="1">
          <mxGeometry width="50" height="50" relative="1" as="geometry">
            <mxPoint x="1180" y="-325" as="sourcePoint" />
            <mxPoint x="1430" y="-536" as="targetPoint" />
          </mxGeometry>
        </mxCell>
        <mxCell id="I6-eAjEo8sENSfLh10Aw-280" value="Track" style="rhombus;whiteSpace=wrap;html=1;fontStyle=1;fontSize=15;fillColor=#fff2cc;strokeColor=#d6b656;gradientColor=#ffd966;" parent="1" vertex="1">
          <mxGeometry x="1113.75" y="-518" width="107.5" height="80" as="geometry" />
        </mxCell>
        <mxCell id="I6-eAjEo8sENSfLh10Aw-281" value="" style="endArrow=none;html=1;rounded=0;entryX=0.5;entryY=0;entryDx=0;entryDy=0;" parent="1" target="I6-eAjEo8sENSfLh10Aw-280" edge="1">
          <mxGeometry width="50" height="50" relative="1" as="geometry">
            <mxPoint x="1168" y="-600" as="sourcePoint" />
            <mxPoint x="1080" y="-440" as="targetPoint" />
          </mxGeometry>
        </mxCell>
        <mxCell id="I6-eAjEo8sENSfLh10Aw-285" value="" style="verticalLabelPosition=bottom;align=center;dashed=0;html=1;verticalAlign=top;shape=mxgraph.pid.fittings.single_flange;" parent="1" vertex="1">
          <mxGeometry x="1251.25" y="-340.5" width="5" height="30" as="geometry" />
        </mxCell>
        <mxCell id="I6-eAjEo8sENSfLh10Aw-286" value="" style="endArrow=none;html=1;rounded=0;exitX=0.5;exitY=0.5;exitDx=0;exitDy=0;exitPerimeter=0;entryX=0.5;entryY=0;entryDx=0;entryDy=0;entryPerimeter=0;" parent="1" source="I6-eAjEo8sENSfLh10Aw-285" target="I6-eAjEo8sENSfLh10Aw-278" edge="1">
          <mxGeometry width="50" height="50" relative="1" as="geometry">
            <mxPoint x="1470" y="-496" as="sourcePoint" />
            <mxPoint x="1520" y="-546" as="targetPoint" />
          </mxGeometry>
        </mxCell>
        <mxCell id="I6-eAjEo8sENSfLh10Aw-305" value="" style="endArrow=none;html=1;rounded=0;exitX=0.5;exitY=1;exitDx=0;exitDy=0;" parent="1" source="I6-eAjEo8sENSfLh10Aw-280" edge="1">
          <mxGeometry width="50" height="50" relative="1" as="geometry">
            <mxPoint x="1180" y="-470" as="sourcePoint" />
            <mxPoint x="1180" y="-320" as="targetPoint" />
          </mxGeometry>
        </mxCell>
        <mxCell id="I6-eAjEo8sENSfLh10Aw-314" value="" style="endArrow=none;html=1;rounded=0;exitX=0.995;exitY=0.932;exitDx=0;exitDy=0;exitPerimeter=0;" parent="1" source="I6-eAjEo8sENSfLh10Aw-28" edge="1">
          <mxGeometry width="50" height="50" relative="1" as="geometry">
            <mxPoint x="1131.12" y="-599.4479999999999" as="sourcePoint" />
            <mxPoint x="1170" y="-600" as="targetPoint" />
          </mxGeometry>
        </mxCell>
        <mxCell id="I6-eAjEo8sENSfLh10Aw-319" value="Associated to" style="rhombus;whiteSpace=wrap;html=1;fontStyle=1;fontSize=15;fillColor=#fff2cc;strokeColor=#d6b656;gradientColor=#ffd966;" parent="1" vertex="1">
          <mxGeometry x="1460" y="-508" width="143.75" height="80" as="geometry" />
        </mxCell>
        <mxCell id="I6-eAjEo8sENSfLh10Aw-320" value="" style="endArrow=none;html=1;rounded=0;entryX=0.5;entryY=0;entryDx=0;entryDy=0;exitX=0;exitY=1;exitDx=0;exitDy=0;" parent="1" source="I6-eAjEo8sENSfLh10Aw-65" target="I6-eAjEo8sENSfLh10Aw-319" edge="1">
          <mxGeometry width="50" height="50" relative="1" as="geometry">
            <mxPoint x="1640" y="-600" as="sourcePoint" />
            <mxPoint x="1486.25" y="-471" as="targetPoint" />
            <Array as="points">
              <mxPoint x="1570" y="-590" />
            </Array>
          </mxGeometry>
        </mxCell>
        <mxCell id="I6-eAjEo8sENSfLh10Aw-321" value="" style="endArrow=none;html=1;rounded=0;entryX=0;entryY=0.5;entryDx=0;entryDy=0;exitX=0.5;exitY=0;exitDx=0;exitDy=0;exitPerimeter=0;" parent="1" edge="1">
          <mxGeometry width="50" height="50" relative="1" as="geometry">
            <mxPoint x="1526.25" y="-642.5" as="sourcePoint" />
            <mxPoint x="1526.25" y="-642.5" as="targetPoint" />
          </mxGeometry>
        </mxCell>
        <mxCell id="I6-eAjEo8sENSfLh10Aw-322" value="" style="endArrow=none;html=1;rounded=0;exitX=0.5;exitY=0.5;exitDx=0;exitDy=0;exitPerimeter=0;entryX=0.5;entryY=0;entryDx=0;entryDy=0;entryPerimeter=0;" parent="1" edge="1">
          <mxGeometry width="50" height="50" relative="1" as="geometry">
            <mxPoint x="1660.25" y="-356" as="sourcePoint" />
            <mxPoint x="1657.25" y="-355" as="targetPoint" />
          </mxGeometry>
        </mxCell>
        <mxCell id="I6-eAjEo8sENSfLh10Aw-323" value="" style="endArrow=none;html=1;rounded=0;exitX=0.5;exitY=1;exitDx=0;exitDy=0;entryX=1;entryY=0.5;entryDx=0;entryDy=0;" parent="1" source="I6-eAjEo8sENSfLh10Aw-319" target="BDAsgSVEI-V6HOZZ_p6C-6" edge="1">
          <mxGeometry width="50" height="50" relative="1" as="geometry">
            <mxPoint x="1586.25" y="-501" as="sourcePoint" />
            <mxPoint x="1520" y="-320" as="targetPoint" />
            <Array as="points">
              <mxPoint x="1570" y="-320" />
            </Array>
          </mxGeometry>
        </mxCell>
        <mxCell id="I6-eAjEo8sENSfLh10Aw-324" value="" style="shape=image;html=1;verticalAlign=top;verticalLabelPosition=bottom;labelBackgroundColor=#ffffff;imageAspect=0;aspect=fixed;image=https://cdn2.iconfinder.com/data/icons/css-vol-2/24/math-equal-128.png;direction=south;" parent="1" vertex="1">
          <mxGeometry x="1583.75" y="-603" width="35" height="35" as="geometry" />
        </mxCell>
        <mxCell id="I6-eAjEo8sENSfLh10Aw-341" value="" style="line;strokeWidth=2;direction=north;html=1;fontStyle=1" parent="1" vertex="1">
          <mxGeometry x="-10" y="-362" width="10" height="32" as="geometry" />
        </mxCell>
        <mxCell id="I6-eAjEo8sENSfLh10Aw-360" value="Initiated By" style="rhombus;whiteSpace=wrap;html=1;fontStyle=1;fontSize=17;fillColor=#fff2cc;strokeColor=#d6b656;gradientColor=#ffd966;" parent="1" vertex="1">
          <mxGeometry x="550" y="-724" width="180" height="80" as="geometry" />
        </mxCell>
        <mxCell id="I6-eAjEo8sENSfLh10Aw-361" value="" style="endArrow=none;html=1;rounded=0;entryX=1;entryY=0.5;entryDx=0;entryDy=0;" parent="1" target="I6-eAjEo8sENSfLh10Aw-360" edge="1">
          <mxGeometry width="50" height="50" relative="1" as="geometry">
            <mxPoint x="810" y="-690" as="sourcePoint" />
            <mxPoint x="550" y="-838" as="targetPoint" />
          </mxGeometry>
        </mxCell>
        <mxCell id="I6-eAjEo8sENSfLh10Aw-362" value="" style="endArrow=none;html=1;rounded=0;exitX=0.5;exitY=1;exitDx=0;exitDy=0;entryX=0.5;entryY=0;entryDx=0;entryDy=0;entryPerimeter=0;" parent="1" source="I6-eAjEo8sENSfLh10Aw-367" target="I6-eAjEo8sENSfLh10Aw-365" edge="1">
          <mxGeometry width="50" height="50" relative="1" as="geometry">
            <mxPoint x="790" y="-763" as="sourcePoint" />
            <mxPoint x="590" y="-575" as="targetPoint" />
            <Array as="points" />
          </mxGeometry>
        </mxCell>
        <mxCell id="I6-eAjEo8sENSfLh10Aw-365" value="" style="shape=mxgraph.pid.feeders.spray_nozzle;html=1;pointerEvents=1;align=center;verticalLabelPosition=bottom;verticalAlign=top;dashed=0;direction=east;" parent="1" vertex="1">
          <mxGeometry x="575" y="-515" width="25" height="30" as="geometry" />
        </mxCell>
        <mxCell id="I6-eAjEo8sENSfLh10Aw-370" value="" style="endArrow=none;html=1;rounded=0;exitX=0.5;exitY=1;exitDx=0;exitDy=0;entryX=0.5;entryY=0;entryDx=0;entryDy=0;entryPerimeter=0;" parent="1" source="I6-eAjEo8sENSfLh10Aw-360" target="I6-eAjEo8sENSfLh10Aw-367" edge="1">
          <mxGeometry width="50" height="50" relative="1" as="geometry">
            <mxPoint x="638" y="-726.5" as="sourcePoint" />
            <mxPoint x="448" y="-510.5" as="targetPoint" />
            <Array as="points">
              <mxPoint x="640" y="-600" />
              <mxPoint x="588" y="-600" />
            </Array>
          </mxGeometry>
        </mxCell>
        <mxCell id="I6-eAjEo8sENSfLh10Aw-367" value="" style="line;strokeWidth=2;direction=west;html=1;" parent="1" vertex="1">
          <mxGeometry x="571.5" y="-537" width="32" height="30" as="geometry" />
        </mxCell>
        <mxCell id="I6-eAjEo8sENSfLh10Aw-372" value="z" style="shape=image;html=1;verticalAlign=top;verticalLabelPosition=bottom;labelBackgroundColor=#ffffff;imageAspect=0;aspect=fixed;image=https://cdn2.iconfinder.com/data/icons/css-vol-2/24/math-equal-128.png;direction=north;" parent="1" vertex="1">
          <mxGeometry x="750" y="-708" width="40" height="40" as="geometry" />
        </mxCell>
        <mxCell id="I6-eAjEo8sENSfLh10Aw-388" value="" style="shape=mxgraph.pid.feeders.spray_nozzle;html=1;pointerEvents=1;align=center;verticalLabelPosition=bottom;verticalAlign=top;dashed=0;direction=east;" parent="1" vertex="1">
          <mxGeometry x="470" y="-514" width="25" height="30" as="geometry" />
        </mxCell>
        <mxCell id="I6-eAjEo8sENSfLh10Aw-389" value="Linked to" style="rhombus;whiteSpace=wrap;html=1;fontStyle=1;fontSize=20;fillColor=#fff2cc;strokeColor=#d6b656;gradientColor=#ffd966;" parent="1" vertex="1">
          <mxGeometry x="400" y="-238" width="178" height="132" as="geometry" />
        </mxCell>
        <mxCell id="I6-eAjEo8sENSfLh10Aw-395" value="" style="line;strokeWidth=2;direction=west;html=1;" parent="1" vertex="1">
          <mxGeometry x="470" y="-528" width="32" height="30" as="geometry" />
        </mxCell>
        <mxCell id="I6-eAjEo8sENSfLh10Aw-397" value="" style="endArrow=none;html=1;rounded=0;exitX=0.5;exitY=0;exitDx=0;exitDy=0;exitPerimeter=0;entryX=0;entryY=0.5;entryDx=0;entryDy=0;" parent="1" source="I6-eAjEo8sENSfLh10Aw-388" target="I6-eAjEo8sENSfLh10Aw-389" edge="1">
          <mxGeometry width="50" height="50" relative="1" as="geometry">
            <mxPoint x="260" y="-770" as="sourcePoint" />
            <mxPoint x="290" y="-160" as="targetPoint" />
            <Array as="points">
              <mxPoint x="483" y="-570" />
              <mxPoint x="450" y="-570" />
              <mxPoint x="350" y="-570" />
              <mxPoint x="130" y="-560" />
              <mxPoint x="130" y="-420" />
              <mxPoint x="130" y="-170" />
            </Array>
          </mxGeometry>
        </mxCell>
        <mxCell id="I6-eAjEo8sENSfLh10Aw-400" value="" style="endArrow=none;html=1;rounded=0;entryX=0.25;entryY=1;entryDx=0;entryDy=0;" parent="1" target="I6-eAjEo8sENSfLh10Aw-65" edge="1">
          <mxGeometry width="50" height="50" relative="1" as="geometry">
            <mxPoint x="1678" y="-600" as="sourcePoint" />
            <mxPoint x="1670" y="-510" as="targetPoint" />
            <Array as="points">
              <mxPoint x="1680" y="-180" />
            </Array>
          </mxGeometry>
        </mxCell>
        <mxCell id="I6-eAjEo8sENSfLh10Aw-404" value="" style="endArrow=none;html=1;rounded=0;exitX=1;exitY=0.5;exitDx=0;exitDy=0;" parent="1" source="I6-eAjEo8sENSfLh10Aw-389" edge="1">
          <mxGeometry width="50" height="50" relative="1" as="geometry">
            <mxPoint x="580" y="-180" as="sourcePoint" />
            <mxPoint x="1690" y="-180" as="targetPoint" />
            <Array as="points" />
          </mxGeometry>
        </mxCell>
        <mxCell id="I6-eAjEo8sENSfLh10Aw-401" value="z" style="shape=image;html=1;verticalAlign=top;verticalLabelPosition=bottom;labelBackgroundColor=#ffffff;imageAspect=0;aspect=fixed;image=https://cdn2.iconfinder.com/data/icons/css-vol-2/24/math-equal-128.png;direction=east;" parent="1" vertex="1">
          <mxGeometry x="1660" y="-579" width="40" height="40" as="geometry" />
        </mxCell>
        <mxCell id="I6-eAjEo8sENSfLh10Aw-405" value="Linked to" style="rhombus;whiteSpace=wrap;html=1;fontStyle=1;fontSize=20;fillColor=#fff2cc;strokeColor=#d6b656;gradientColor=#ffd966;" parent="1" vertex="1">
          <mxGeometry x="510" y="-874" width="160" height="115" as="geometry" />
        </mxCell>
        <mxCell id="I6-eAjEo8sENSfLh10Aw-406" value="" style="endArrow=none;html=1;rounded=0;entryX=0;entryY=0.5;entryDx=0;entryDy=0;" parent="1" target="I6-eAjEo8sENSfLh10Aw-405" edge="1">
          <mxGeometry width="50" height="50" relative="1" as="geometry">
            <mxPoint x="400" y="-768" as="sourcePoint" />
            <mxPoint x="510" y="-774.5" as="targetPoint" />
            <Array as="points">
              <mxPoint x="400" y="-816" />
            </Array>
          </mxGeometry>
        </mxCell>
        <mxCell id="I6-eAjEo8sENSfLh10Aw-407" value="" style="shape=image;html=1;verticalAlign=top;verticalLabelPosition=bottom;labelBackgroundColor=#ffffff;imageAspect=0;aspect=fixed;image=https://cdn2.iconfinder.com/data/icons/css-vol-2/24/math-equal-128.png" parent="1" vertex="1">
          <mxGeometry x="386" y="-806" width="39" height="39" as="geometry" />
        </mxCell>
        <mxCell id="I6-eAjEo8sENSfLh10Aw-418" value="" style="endArrow=none;html=1;rounded=0;exitX=1;exitY=0.5;exitDx=0;exitDy=0;entryX=0.037;entryY=0.017;entryDx=0;entryDy=0;entryPerimeter=0;" parent="1" source="I6-eAjEo8sENSfLh10Aw-405" target="I6-eAjEo8sENSfLh10Aw-28" edge="1">
          <mxGeometry width="50" height="50" relative="1" as="geometry">
            <mxPoint x="670" y="-816" as="sourcePoint" />
            <mxPoint x="820" y="-740" as="targetPoint" />
            <Array as="points">
              <mxPoint x="820" y="-820" />
            </Array>
          </mxGeometry>
        </mxCell>
        <mxCell id="I6-eAjEo8sENSfLh10Aw-417" value="" style="shape=image;html=1;verticalAlign=top;verticalLabelPosition=bottom;labelBackgroundColor=#ffffff;imageAspect=0;aspect=fixed;image=https://cdn2.iconfinder.com/data/icons/css-vol-2/24/math-equal-128.png" parent="1" vertex="1">
          <mxGeometry x="800" y="-770" width="39" height="39" as="geometry" />
        </mxCell>
        <mxCell id="I6-eAjEo8sENSfLh10Aw-419" value="Transfer money" style="rhombus;whiteSpace=wrap;html=1;fontStyle=1;fontSize=20;fillColor=#fff2cc;strokeColor=#d6b656;gradientColor=#ffd966;" parent="1" vertex="1">
          <mxGeometry x="150" y="-943" width="190" height="115" as="geometry" />
        </mxCell>
        <mxCell id="I6-eAjEo8sENSfLh10Aw-423" value="" style="shape=mxgraph.pid.feeders.spray_nozzle;html=1;pointerEvents=1;align=center;verticalLabelPosition=bottom;verticalAlign=top;dashed=0;direction=east;" parent="1" vertex="1">
          <mxGeometry x="228.5" y="-791" width="33" height="17.5" as="geometry" />
        </mxCell>
        <mxCell id="I6-eAjEo8sENSfLh10Aw-424" value="" style="endArrow=none;html=1;rounded=0;exitX=0.5;exitY=0;exitDx=0;exitDy=0;exitPerimeter=0;entryX=0;entryY=0;entryDx=0;entryDy=0;" parent="1" source="I6-eAjEo8sENSfLh10Aw-423" target="I6-eAjEo8sENSfLh10Aw-425" edge="1">
          <mxGeometry width="50" height="50" relative="1" as="geometry">
            <mxPoint x="613" y="-573.75" as="sourcePoint" />
            <mxPoint x="456.25" y="-728.75" as="targetPoint" />
          </mxGeometry>
        </mxCell>
        <mxCell id="I6-eAjEo8sENSfLh10Aw-425" value="" style="ellipse;whiteSpace=wrap;html=1;aspect=fixed;" parent="1" vertex="1">
          <mxGeometry x="237.5" y="-806" width="15" height="15" as="geometry" />
        </mxCell>
        <mxCell id="I6-eAjEo8sENSfLh10Aw-434" value="" style="endArrow=none;html=1;rounded=0;exitX=0.5;exitY=0;exitDx=0;exitDy=0;entryX=0.5;entryY=1;entryDx=0;entryDy=0;" parent="1" source="I6-eAjEo8sENSfLh10Aw-425" target="I6-eAjEo8sENSfLh10Aw-419" edge="1">
          <mxGeometry width="50" height="50" relative="1" as="geometry">
            <mxPoint x="430" y="-800" as="sourcePoint" />
            <mxPoint x="480" y="-850" as="targetPoint" />
          </mxGeometry>
        </mxCell>
        <mxCell id="I6-eAjEo8sENSfLh10Aw-438" value="" style="shape=mxgraph.pid.feeders.spray_nozzle;html=1;pointerEvents=1;align=center;verticalLabelPosition=bottom;verticalAlign=top;dashed=0;direction=east;" parent="1" vertex="1">
          <mxGeometry x="325" y="-790.5" width="33" height="17.5" as="geometry" />
        </mxCell>
        <mxCell id="I6-eAjEo8sENSfLh10Aw-439" value="" style="endArrow=none;html=1;rounded=0;exitX=0.5;exitY=0;exitDx=0;exitDy=0;exitPerimeter=0;entryX=0;entryY=0;entryDx=0;entryDy=0;" parent="1" source="I6-eAjEo8sENSfLh10Aw-438" target="I6-eAjEo8sENSfLh10Aw-440" edge="1">
          <mxGeometry width="50" height="50" relative="1" as="geometry">
            <mxPoint x="709.5" y="-573.25" as="sourcePoint" />
            <mxPoint x="552.75" y="-728.25" as="targetPoint" />
          </mxGeometry>
        </mxCell>
        <mxCell id="I6-eAjEo8sENSfLh10Aw-440" value="" style="ellipse;whiteSpace=wrap;html=1;aspect=fixed;" parent="1" vertex="1">
          <mxGeometry x="334" y="-805.5" width="15" height="15" as="geometry" />
        </mxCell>
        <mxCell id="I6-eAjEo8sENSfLh10Aw-441" value="" style="endArrow=none;html=1;rounded=0;entryX=1;entryY=0.5;entryDx=0;entryDy=0;exitX=0.5;exitY=0;exitDx=0;exitDy=0;" parent="1" source="I6-eAjEo8sENSfLh10Aw-440" target="I6-eAjEo8sENSfLh10Aw-419" edge="1">
          <mxGeometry width="50" height="50" relative="1" as="geometry">
            <mxPoint x="350" y="-820" as="sourcePoint" />
            <mxPoint x="360" y="-870" as="targetPoint" />
          </mxGeometry>
        </mxCell>
        <mxCell id="I6-eAjEo8sENSfLh10Aw-445" value="" style="endArrow=none;html=1;rounded=0;exitX=1;exitY=1;exitDx=0;exitDy=0;fillColor=#fff2cc;gradientColor=#ffd966;strokeColor=#d6b656;entryX=0.5;entryY=0;entryDx=0;entryDy=0;" parent="1" source="I6-eAjEo8sENSfLh10Aw-447" target="I6-eAjEo8sENSfLh10Aw-419" edge="1">
          <mxGeometry width="50" height="50" relative="1" as="geometry">
            <mxPoint x="175" y="-970" as="sourcePoint" />
            <mxPoint x="245" y="-1060" as="targetPoint" />
          </mxGeometry>
        </mxCell>
        <mxCell id="I6-eAjEo8sENSfLh10Aw-446" value="Date" style="ellipse;whiteSpace=wrap;html=1;fontStyle=1;fillColor=#fff2cc;strokeColor=#d6b656;gradientColor=#ffd966;" parent="1" vertex="1">
          <mxGeometry x="250" y="-998" width="95" height="32" as="geometry" />
        </mxCell>
        <mxCell id="I6-eAjEo8sENSfLh10Aw-447" value="Amount_sent" style="ellipse;whiteSpace=wrap;html=1;fontStyle=1;fillColor=#fff2cc;strokeColor=#d6b656;gradientColor=#ffd966;" parent="1" vertex="1">
          <mxGeometry x="110" y="-998" width="120" height="32" as="geometry" />
        </mxCell>
        <mxCell id="I6-eAjEo8sENSfLh10Aw-448" value="" style="endArrow=none;html=1;rounded=0;entryX=0.5;entryY=1;entryDx=0;entryDy=0;fillColor=#fff2cc;gradientColor=#ffd966;strokeColor=#d6b656;exitX=1;exitY=0;exitDx=0;exitDy=0;" parent="1" source="I6-eAjEo8sENSfLh10Aw-419" target="I6-eAjEo8sENSfLh10Aw-446" edge="1">
          <mxGeometry width="50" height="50" relative="1" as="geometry">
            <mxPoint x="275" y="-1000" as="sourcePoint" />
            <mxPoint x="300" y="-1060" as="targetPoint" />
          </mxGeometry>
        </mxCell>
        <mxCell id="I6-eAjEo8sENSfLh10Aw-453" value="" style="shape=mxgraph.pid.feeders.spray_nozzle;html=1;pointerEvents=1;align=center;verticalLabelPosition=bottom;verticalAlign=top;dashed=0;direction=north;" parent="1" vertex="1">
          <mxGeometry x="1347.5" y="-1410" width="17.5" height="33" as="geometry" />
        </mxCell>
        <mxCell id="I6-eAjEo8sENSfLh10Aw-454" value="" style="endArrow=none;html=1;rounded=0;exitX=0.5;exitY=0;exitDx=0;exitDy=0;exitPerimeter=0;entryX=0;entryY=0;entryDx=0;entryDy=0;" parent="1" source="I6-eAjEo8sENSfLh10Aw-453" target="I6-eAjEo8sENSfLh10Aw-455" edge="1">
          <mxGeometry width="50" height="50" relative="1" as="geometry">
            <mxPoint x="1443.5" y="-924.75" as="sourcePoint" />
            <mxPoint x="1286.75" y="-1079.75" as="targetPoint" />
          </mxGeometry>
        </mxCell>
        <mxCell id="I6-eAjEo8sENSfLh10Aw-455" value="" style="ellipse;whiteSpace=wrap;html=1;aspect=fixed;" parent="1" vertex="1">
          <mxGeometry x="1332.5" y="-1401" width="15" height="15" as="geometry" />
        </mxCell>
        <mxCell id="I6-eAjEo8sENSfLh10Aw-456" value="Entitled to" style="rhombus;whiteSpace=wrap;html=1;fontStyle=1;fontSize=20;fillColor=#fff2cc;strokeColor=#d6b656;gradientColor=#ffd966;" parent="1" vertex="1">
          <mxGeometry x="1132.5" y="-1058" width="160" height="115" as="geometry" />
        </mxCell>
        <mxCell id="I6-eAjEo8sENSfLh10Aw-457" value="" style="endArrow=none;html=1;rounded=0;exitX=0;exitY=0.5;exitDx=0;exitDy=0;entryX=0.5;entryY=0;entryDx=0;entryDy=0;" parent="1" source="I6-eAjEo8sENSfLh10Aw-455" target="I6-eAjEo8sENSfLh10Aw-456" edge="1">
          <mxGeometry width="50" height="50" relative="1" as="geometry">
            <mxPoint x="980" y="-1240" as="sourcePoint" />
            <mxPoint x="1030" y="-1290" as="targetPoint" />
            <Array as="points">
              <mxPoint x="1210" y="-1393" />
            </Array>
          </mxGeometry>
        </mxCell>
        <mxCell id="I6-eAjEo8sENSfLh10Aw-458" value="" style="endArrow=none;html=1;rounded=0;entryX=0.5;entryY=1;entryDx=0;entryDy=0;exitX=1;exitY=0.5;exitDx=0;exitDy=0;" parent="1" source="I6-eAjEo8sENSfLh10Aw-461" target="I6-eAjEo8sENSfLh10Aw-456" edge="1">
          <mxGeometry width="50" height="50" relative="1" as="geometry">
            <mxPoint x="1160" y="-690" as="sourcePoint" />
            <mxPoint x="1120" y="-920" as="targetPoint" />
            <Array as="points">
              <mxPoint x="1213" y="-695" />
            </Array>
          </mxGeometry>
        </mxCell>
        <mxCell id="I6-eAjEo8sENSfLh10Aw-459" value="" style="line;strokeWidth=2;direction=north;html=1;fontStyle=1" parent="1" vertex="1">
          <mxGeometry x="1107.5" y="-717" width="10" height="32" as="geometry" />
        </mxCell>
        <mxCell id="I6-eAjEo8sENSfLh10Aw-462" value="" style="endArrow=none;html=1;rounded=0;entryX=0;entryY=0.5;entryDx=0;entryDy=0;" parent="1" target="I6-eAjEo8sENSfLh10Aw-461" edge="1">
          <mxGeometry width="50" height="50" relative="1" as="geometry">
            <mxPoint x="1100" y="-697" as="sourcePoint" />
            <mxPoint x="1213" y="-943" as="targetPoint" />
            <Array as="points" />
          </mxGeometry>
        </mxCell>
        <mxCell id="I6-eAjEo8sENSfLh10Aw-461" value="" style="ellipse;whiteSpace=wrap;html=1;aspect=fixed;" parent="1" vertex="1">
          <mxGeometry x="1123.75" y="-705" width="15" height="15" as="geometry" />
        </mxCell>
        <mxCell id="I6-eAjEo8sENSfLh10Aw-467" value="Linked To" style="rhombus;whiteSpace=wrap;html=1;fontStyle=1;fontSize=20;fillColor=#fff2cc;strokeColor=#d6b656;gradientColor=#ffd966;" parent="1" vertex="1">
          <mxGeometry x="2080" y="-900" width="160" height="115" as="geometry" />
        </mxCell>
        <mxCell id="I6-eAjEo8sENSfLh10Aw-469" value="" style="shape=mxgraph.pid.feeders.spray_nozzle;html=1;pointerEvents=1;align=center;verticalLabelPosition=bottom;verticalAlign=top;dashed=0;direction=east;" parent="1" vertex="1">
          <mxGeometry x="1788" y="-680" width="25" height="30" as="geometry" />
        </mxCell>
        <mxCell id="I6-eAjEo8sENSfLh10Aw-470" value="" style="line;strokeWidth=2;direction=west;html=1;" parent="1" vertex="1">
          <mxGeometry x="1788" y="-694" width="32" height="30" as="geometry" />
        </mxCell>
        <mxCell id="I6-eAjEo8sENSfLh10Aw-471" value="" style="endArrow=none;html=1;rounded=0;entryX=0;entryY=0.5;entryDx=0;entryDy=0;exitX=0.5;exitY=0;exitDx=0;exitDy=0;exitPerimeter=0;" parent="1" source="I6-eAjEo8sENSfLh10Aw-469" target="I6-eAjEo8sENSfLh10Aw-467" edge="1">
          <mxGeometry width="50" height="50" relative="1" as="geometry">
            <mxPoint x="2020" y="-790" as="sourcePoint" />
            <mxPoint x="2070" y="-840" as="targetPoint" />
            <Array as="points">
              <mxPoint x="1801" y="-842" />
            </Array>
          </mxGeometry>
        </mxCell>
        <mxCell id="I6-eAjEo8sENSfLh10Aw-472" value="" style="endArrow=none;html=1;rounded=0;entryX=0.5;entryY=1;entryDx=0;entryDy=0;exitX=0.5;exitY=0;exitDx=0;exitDy=0;" parent="1" source="I6-eAjEo8sENSfLh10Aw-482" target="I6-eAjEo8sENSfLh10Aw-480" edge="1">
          <mxGeometry width="50" height="50" relative="1" as="geometry">
            <mxPoint x="1008" y="-770" as="sourcePoint" />
            <mxPoint x="930" y="-810" as="targetPoint" />
          </mxGeometry>
        </mxCell>
        <mxCell id="I6-eAjEo8sENSfLh10Aw-473" value="" style="endArrow=none;html=1;rounded=0;exitX=1;exitY=0.5;exitDx=0;exitDy=0;entryX=0.537;entryY=-0.561;entryDx=0;entryDy=0;entryPerimeter=0;" parent="1" source="I6-eAjEo8sENSfLh10Aw-467" target="I6-eAjEo8sENSfLh10Aw-474" edge="1">
          <mxGeometry width="50" height="50" relative="1" as="geometry">
            <mxPoint x="2270" y="-830" as="sourcePoint" />
            <mxPoint x="1720" y="-1410" as="targetPoint" />
            <Array as="points">
              <mxPoint x="2240" y="-1400" />
            </Array>
          </mxGeometry>
        </mxCell>
        <mxCell id="I6-eAjEo8sENSfLh10Aw-474" value="" style="shape=mxgraph.pid.feeders.spray_nozzle;html=1;pointerEvents=1;align=center;verticalLabelPosition=bottom;verticalAlign=top;dashed=0;direction=south;" parent="1" vertex="1">
          <mxGeometry x="1575.63" y="-1419" width="17.5" height="33" as="geometry" />
        </mxCell>
        <mxCell id="I6-eAjEo8sENSfLh10Aw-475" value="" style="endArrow=none;html=1;rounded=0;entryX=0;entryY=0.5;entryDx=0;entryDy=0;exitX=0.5;exitY=0;exitDx=0;exitDy=0;exitPerimeter=0;" parent="1" source="I6-eAjEo8sENSfLh10Aw-474" target="I6-eAjEo8sENSfLh10Aw-476" edge="1">
          <mxGeometry width="50" height="50" relative="1" as="geometry">
            <mxPoint x="1593.63" y="-1371" as="sourcePoint" />
            <mxPoint x="1775.63" y="-1371" as="targetPoint" />
          </mxGeometry>
        </mxCell>
        <mxCell id="I6-eAjEo8sENSfLh10Aw-476" value="" style="ellipse;whiteSpace=wrap;html=1;aspect=fixed;" parent="1" vertex="1">
          <mxGeometry x="1589.38" y="-1410" width="15" height="15" as="geometry" />
        </mxCell>
        <mxCell id="I6-eAjEo8sENSfLh10Aw-480" value="Hold" style="rhombus;whiteSpace=wrap;html=1;fontStyle=1;fontSize=20;fillColor=#fff2cc;strokeColor=#d6b656;gradientColor=#ffd966;" parent="1" vertex="1">
          <mxGeometry x="1040" y="-1157" width="160" height="115" as="geometry" />
        </mxCell>
        <mxCell id="I6-eAjEo8sENSfLh10Aw-481" value="" style="line;strokeWidth=2;direction=east;html=1;fontStyle=1" parent="1" vertex="1">
          <mxGeometry x="1064" y="-760" width="32" height="14.5" as="geometry" />
        </mxCell>
        <mxCell id="I6-eAjEo8sENSfLh10Aw-482" value="" style="ellipse;whiteSpace=wrap;html=1;aspect=fixed;" parent="1" vertex="1">
          <mxGeometry x="1072.5" y="-770" width="15" height="15" as="geometry" />
        </mxCell>
        <mxCell id="I6-eAjEo8sENSfLh10Aw-483" value="" style="endArrow=none;html=1;rounded=0;exitX=0.683;exitY=0;exitDx=0;exitDy=0;exitPerimeter=0;entryX=0.5;entryY=1;entryDx=0;entryDy=0;" parent="1" target="I6-eAjEo8sENSfLh10Aw-482" edge="1">
          <mxGeometry width="50" height="50" relative="1" as="geometry">
            <mxPoint x="1080.5700000000002" y="-730" as="sourcePoint" />
            <mxPoint x="1042.5" y="-790" as="targetPoint" />
          </mxGeometry>
        </mxCell>
        <mxCell id="I6-eAjEo8sENSfLh10Aw-484" value="" style="shape=mxgraph.pid.feeders.spray_nozzle;html=1;pointerEvents=1;align=center;verticalLabelPosition=bottom;verticalAlign=top;dashed=0;direction=west;" parent="1" vertex="1">
          <mxGeometry x="1105.75" y="-1540" width="33" height="17.5" as="geometry" />
        </mxCell>
        <mxCell id="I6-eAjEo8sENSfLh10Aw-485" value="" style="endArrow=none;html=1;rounded=0;exitX=0.5;exitY=0;exitDx=0;exitDy=0;exitPerimeter=0;entryX=0;entryY=0;entryDx=0;entryDy=0;" parent="1" source="I6-eAjEo8sENSfLh10Aw-484" target="I6-eAjEo8sENSfLh10Aw-486" edge="1">
          <mxGeometry width="50" height="50" relative="1" as="geometry">
            <mxPoint x="1214.75" y="-1044.75" as="sourcePoint" />
            <mxPoint x="1058" y="-1199.75" as="targetPoint" />
          </mxGeometry>
        </mxCell>
        <mxCell id="I6-eAjEo8sENSfLh10Aw-486" value="" style="ellipse;whiteSpace=wrap;html=1;aspect=fixed;" parent="1" vertex="1">
          <mxGeometry x="1114.75" y="-1522.5" width="15" height="15" as="geometry" />
        </mxCell>
        <mxCell id="I6-eAjEo8sENSfLh10Aw-490" value="" style="endArrow=none;html=1;rounded=0;entryX=0.5;entryY=1;entryDx=0;entryDy=0;exitX=0.5;exitY=0;exitDx=0;exitDy=0;" parent="1" source="I6-eAjEo8sENSfLh10Aw-480" target="I6-eAjEo8sENSfLh10Aw-486" edge="1">
          <mxGeometry width="50" height="50" relative="1" as="geometry">
            <mxPoint x="1080" y="-1380" as="sourcePoint" />
            <mxPoint x="1130" y="-1430" as="targetPoint" />
          </mxGeometry>
        </mxCell>
        <mxCell id="I6-eAjEo8sENSfLh10Aw-492" value="Redeem" style="rhombus;whiteSpace=wrap;html=1;fontStyle=1;fontSize=20;fillColor=#fff2cc;strokeColor=#d6b656;gradientColor=#ffd966;" parent="1" vertex="1">
          <mxGeometry x="620" y="-1706" width="160" height="115" as="geometry" />
        </mxCell>
        <mxCell id="I6-eAjEo8sENSfLh10Aw-499" value="" style="endArrow=none;html=1;rounded=0;exitX=0.425;exitY=0.222;exitDx=0;exitDy=0;entryX=0;entryY=0.5;entryDx=0;entryDy=0;exitPerimeter=0;" parent="1" source="ylNzfsn0oW1hcqgbW8fc-15" target="I6-eAjEo8sENSfLh10Aw-492" edge="1">
          <mxGeometry width="50" height="50" relative="1" as="geometry">
            <mxPoint x="550" y="-1650.5" as="sourcePoint" />
            <mxPoint x="610" y="-1650" as="targetPoint" />
          </mxGeometry>
        </mxCell>
        <mxCell id="I6-eAjEo8sENSfLh10Aw-500" value="" style="endArrow=none;html=1;rounded=0;entryX=1;entryY=0.5;entryDx=0;entryDy=0;exitX=0;exitY=0.5;exitDx=0;exitDy=0;" parent="1" source="I6-eAjEo8sENSfLh10Aw-503" target="I6-eAjEo8sENSfLh10Aw-492" edge="1">
          <mxGeometry width="50" height="50" relative="1" as="geometry">
            <mxPoint x="880" y="-1560" as="sourcePoint" />
            <mxPoint x="820" y="-1600" as="targetPoint" />
            <Array as="points">
              <mxPoint x="780" y="-1560" />
            </Array>
          </mxGeometry>
        </mxCell>
        <mxCell id="I6-eAjEo8sENSfLh10Aw-501" value="" style="shape=mxgraph.pid.feeders.spray_nozzle;html=1;pointerEvents=1;align=center;verticalLabelPosition=bottom;verticalAlign=top;dashed=0;direction=north;" parent="1" vertex="1">
          <mxGeometry x="922.5" y="-1576" width="17.5" height="33" as="geometry" />
        </mxCell>
        <mxCell id="I6-eAjEo8sENSfLh10Aw-502" value="" style="endArrow=none;html=1;rounded=0;exitX=0.5;exitY=0;exitDx=0;exitDy=0;exitPerimeter=0;entryX=0;entryY=0;entryDx=0;entryDy=0;" parent="1" source="I6-eAjEo8sENSfLh10Aw-501" target="I6-eAjEo8sENSfLh10Aw-503" edge="1">
          <mxGeometry width="50" height="50" relative="1" as="geometry">
            <mxPoint x="1018.5" y="-1090.75" as="sourcePoint" />
            <mxPoint x="861.75" y="-1245.75" as="targetPoint" />
          </mxGeometry>
        </mxCell>
        <mxCell id="I6-eAjEo8sENSfLh10Aw-503" value="" style="ellipse;whiteSpace=wrap;html=1;aspect=fixed;" parent="1" vertex="1">
          <mxGeometry x="907.5" y="-1567" width="15" height="15" as="geometry" />
        </mxCell>
        <mxCell id="ylNzfsn0oW1hcqgbW8fc-2" value="Has" style="rhombus;whiteSpace=wrap;html=1;fontStyle=1;fontSize=20;fillColor=#fff2cc;strokeColor=#d6b656;gradientColor=#ffd966;" parent="1" vertex="1">
          <mxGeometry x="850" y="-1074" width="160" height="115" as="geometry" />
        </mxCell>
        <mxCell id="ylNzfsn0oW1hcqgbW8fc-4" value="" style="endArrow=none;html=1;rounded=0;entryX=0.5;entryY=1;entryDx=0;entryDy=0;exitX=0.5;exitY=0;exitDx=0;exitDy=0;exitPerimeter=0;" parent="1" source="ylNzfsn0oW1hcqgbW8fc-5" target="ylNzfsn0oW1hcqgbW8fc-2" edge="1">
          <mxGeometry width="50" height="50" relative="1" as="geometry">
            <mxPoint x="930" y="-830" as="sourcePoint" />
            <mxPoint x="940" y="-940" as="targetPoint" />
          </mxGeometry>
        </mxCell>
        <mxCell id="ylNzfsn0oW1hcqgbW8fc-5" value="" style="shape=mxgraph.pid.feeders.spray_nozzle;html=1;pointerEvents=1;align=center;verticalLabelPosition=bottom;verticalAlign=top;dashed=0;direction=east;" parent="1" vertex="1">
          <mxGeometry x="928" y="-754" width="25" height="30" as="geometry" />
        </mxCell>
        <mxCell id="ylNzfsn0oW1hcqgbW8fc-6" value="" style="line;strokeWidth=2;direction=west;html=1;" parent="1" vertex="1">
          <mxGeometry x="928" y="-768" width="32" height="30" as="geometry" />
        </mxCell>
        <mxCell id="ylNzfsn0oW1hcqgbW8fc-9" value="" style="endArrow=none;html=1;rounded=0;exitX=0.5;exitY=0;exitDx=0;exitDy=0;entryX=1;entryY=0.5;entryDx=0;entryDy=0;" parent="1" source="ylNzfsn0oW1hcqgbW8fc-2" target="lxwzjU6P134eCqjQLcHW-1" edge="1">
          <mxGeometry width="50" height="50" relative="1" as="geometry">
            <mxPoint x="940" y="-1160" as="sourcePoint" />
            <mxPoint x="990" y="-1210" as="targetPoint" />
            <Array as="points">
              <mxPoint x="930" y="-1268" />
            </Array>
          </mxGeometry>
        </mxCell>
        <mxCell id="ylNzfsn0oW1hcqgbW8fc-10" value="" style="shape=image;html=1;verticalAlign=top;verticalLabelPosition=bottom;labelBackgroundColor=#ffffff;imageAspect=0;aspect=fixed;image=https://cdn2.iconfinder.com/data/icons/css-vol-2/24/math-equal-128.png;direction=south;" parent="1" vertex="1">
          <mxGeometry x="816" y="-1290" width="50" height="50" as="geometry" />
        </mxCell>
        <mxCell id="ylNzfsn0oW1hcqgbW8fc-14" value="" style="shape=mxgraph.pid.feeders.spray_nozzle;html=1;pointerEvents=1;align=center;verticalLabelPosition=bottom;verticalAlign=top;dashed=0;direction=south;" parent="1" vertex="1">
          <mxGeometry x="500" y="-1662" width="30" height="25" as="geometry" />
        </mxCell>
        <mxCell id="ylNzfsn0oW1hcqgbW8fc-15" value="" style="line;strokeWidth=2;direction=south;html=1;" parent="1" vertex="1">
          <mxGeometry x="527.5" y="-1662" width="10" height="32" as="geometry" />
        </mxCell>
        <mxCell id="ylNzfsn0oW1hcqgbW8fc-16" value="Raise" style="rhombus;whiteSpace=wrap;html=1;fontStyle=1;fontSize=20;fillColor=#fff2cc;strokeColor=#d6b656;gradientColor=#ffd966;" parent="1" vertex="1">
          <mxGeometry x="425" y="-1081" width="160" height="115" as="geometry" />
        </mxCell>
        <mxCell id="ylNzfsn0oW1hcqgbW8fc-18" value="" style="endArrow=none;html=1;rounded=0;exitX=1;exitY=0.5;exitDx=0;exitDy=0;entryX=0.25;entryY=0;entryDx=0;entryDy=0;" parent="1" source="ylNzfsn0oW1hcqgbW8fc-16" target="I6-eAjEo8sENSfLh10Aw-28" edge="1">
          <mxGeometry width="50" height="50" relative="1" as="geometry">
            <mxPoint x="690" y="-1000" as="sourcePoint" />
            <mxPoint x="890" y="-740" as="targetPoint" />
            <Array as="points">
              <mxPoint x="850" y="-930" />
            </Array>
          </mxGeometry>
        </mxCell>
        <mxCell id="ylNzfsn0oW1hcqgbW8fc-19" value="" style="endArrow=none;html=1;rounded=0;entryX=0;entryY=0.5;entryDx=0;entryDy=0;exitX=1;exitY=0.5;exitDx=0;exitDy=0;" parent="1" source="ylNzfsn0oW1hcqgbW8fc-22" target="ylNzfsn0oW1hcqgbW8fc-16" edge="1">
          <mxGeometry width="50" height="50" relative="1" as="geometry">
            <mxPoint x="360" y="-1220" as="sourcePoint" />
            <mxPoint x="400" y="-1100" as="targetPoint" />
            <Array as="points">
              <mxPoint x="360" y="-1220" />
              <mxPoint x="360" y="-1030" />
            </Array>
          </mxGeometry>
        </mxCell>
        <mxCell id="ylNzfsn0oW1hcqgbW8fc-20" value="" style="shape=mxgraph.pid.feeders.spray_nozzle;html=1;pointerEvents=1;align=center;verticalLabelPosition=bottom;verticalAlign=top;dashed=0;direction=south;" parent="1" vertex="1">
          <mxGeometry x="301.25" y="-1238" width="17.5" height="33" as="geometry" />
        </mxCell>
        <mxCell id="ylNzfsn0oW1hcqgbW8fc-21" value="" style="endArrow=none;html=1;rounded=0;entryX=0;entryY=0.5;entryDx=0;entryDy=0;exitX=0.5;exitY=0;exitDx=0;exitDy=0;exitPerimeter=0;" parent="1" source="ylNzfsn0oW1hcqgbW8fc-20" target="ylNzfsn0oW1hcqgbW8fc-22" edge="1">
          <mxGeometry width="50" height="50" relative="1" as="geometry">
            <mxPoint x="319.25" y="-1190" as="sourcePoint" />
            <mxPoint x="501.25" y="-1190" as="targetPoint" />
          </mxGeometry>
        </mxCell>
        <mxCell id="ylNzfsn0oW1hcqgbW8fc-22" value="" style="ellipse;whiteSpace=wrap;html=1;aspect=fixed;" parent="1" vertex="1">
          <mxGeometry x="315" y="-1229" width="15" height="15" as="geometry" />
        </mxCell>
        <mxCell id="ylNzfsn0oW1hcqgbW8fc-23" value="" style="line;strokeWidth=2;direction=east;html=1;fontStyle=1" parent="1" vertex="1">
          <mxGeometry x="866" y="-745.5" width="32" height="14.5" as="geometry" />
        </mxCell>
        <mxCell id="ylNzfsn0oW1hcqgbW8fc-24" value="" style="ellipse;whiteSpace=wrap;html=1;aspect=fixed;" parent="1" vertex="1">
          <mxGeometry x="874.5" y="-755.5" width="15" height="15" as="geometry" />
        </mxCell>
        <mxCell id="BDAsgSVEI-V6HOZZ_p6C-2" value="" style="shape=partialRectangle;whiteSpace=wrap;html=1;top=0;bottom=0;fillColor=none;strokeColor=#FF8000;strokeWidth=5;" vertex="1" parent="1">
          <mxGeometry x="390" y="-1603" width="10" height="60" as="geometry" />
        </mxCell>
        <mxCell id="BDAsgSVEI-V6HOZZ_p6C-4" value="" style="shape=mxgraph.pid.feeders.spray_nozzle;html=1;pointerEvents=1;align=center;verticalLabelPosition=bottom;verticalAlign=top;dashed=0;direction=south;" vertex="1" parent="1">
          <mxGeometry x="1482.5" y="-340" width="17.5" height="33" as="geometry" />
        </mxCell>
        <mxCell id="BDAsgSVEI-V6HOZZ_p6C-5" value="" style="endArrow=none;html=1;rounded=0;entryX=0;entryY=0.5;entryDx=0;entryDy=0;exitX=0.5;exitY=0;exitDx=0;exitDy=0;exitPerimeter=0;" edge="1" parent="1" source="BDAsgSVEI-V6HOZZ_p6C-4" target="BDAsgSVEI-V6HOZZ_p6C-6">
          <mxGeometry width="50" height="50" relative="1" as="geometry">
            <mxPoint x="1500.5" y="-292" as="sourcePoint" />
            <mxPoint x="1682.5" y="-292" as="targetPoint" />
          </mxGeometry>
        </mxCell>
        <mxCell id="BDAsgSVEI-V6HOZZ_p6C-6" value="" style="ellipse;whiteSpace=wrap;html=1;aspect=fixed;" vertex="1" parent="1">
          <mxGeometry x="1496.25" y="-331" width="15" height="15" as="geometry" />
        </mxCell>
        <mxCell id="BDAsgSVEI-V6HOZZ_p6C-11" value="" style="endArrow=none;html=1;rounded=0;" edge="1" parent="1" target="BDAsgSVEI-V6HOZZ_p6C-10">
          <mxGeometry width="50" height="50" relative="1" as="geometry">
            <mxPoint x="1098" y="-600" as="sourcePoint" />
            <mxPoint x="1150" y="-600" as="targetPoint" />
          </mxGeometry>
        </mxCell>
        <mxCell id="BDAsgSVEI-V6HOZZ_p6C-10" value="" style="shape=image;html=1;verticalAlign=top;verticalLabelPosition=bottom;labelBackgroundColor=#ffffff;imageAspect=0;aspect=fixed;image=https://cdn2.iconfinder.com/data/icons/css-vol-2/24/math-equal-128.png;direction=south;" vertex="1" parent="1">
          <mxGeometry x="1104.75" y="-615" width="35" height="35" as="geometry" />
        </mxCell>
      </root>
    </mxGraphModel>
  </diagram>
</mxfile>
